<mxfile host="app.diagrams.net" agent="Mozilla/5.0 (Windows NT 10.0; Win64; x64) AppleWebKit/537.36 (KHTML, like Gecko) Chrome/134.0.0.0 Safari/537.36" version="26.1.0">
  <diagram name="Page-1" id="706cwAmd5ylBgrYno4DT">
    <mxGraphModel dx="8870" dy="6320" grid="1" gridSize="10" guides="1" tooltips="1" connect="1" arrows="1" fold="1" page="1" pageScale="1" pageWidth="850" pageHeight="1100" math="0" shadow="0">
      <root>
        <mxCell id="0" />
        <mxCell id="1" parent="0" />
        <mxCell id="8UgVAGLM6Ib2Gt2lrsU2-1" value="&lt;div style=&quot;line-height: 150%;&quot;&gt;&lt;div style=&quot;text-align: right; line-height: 200%;&quot;&gt;&lt;b&gt;&lt;font style=&quot;font-size: 23px;&quot;&gt;&lt;font style=&quot;line-height: 120%;&quot;&gt;All Used Techs as of now&lt;/font&gt;:&lt;/font&gt;&lt;/b&gt;&lt;/div&gt;&lt;div style=&quot;text-align: right; line-height: 200%;&quot;&gt;&lt;b&gt;&lt;font style=&quot;font-size: 23px;&quot;&gt;&lt;br&gt;&lt;/font&gt;&lt;/b&gt;&lt;/div&gt;&lt;div style=&quot;text-align: right; line-height: 200%;&quot;&gt;&lt;b&gt;&lt;font style=&quot;font-size: 23px;&quot;&gt;&lt;br&gt;&lt;/font&gt;&lt;/b&gt;&lt;/div&gt;&lt;div style=&quot;text-align: right; line-height: 200%;&quot;&gt;&lt;b&gt;&lt;font style=&quot;font-size: 23px;&quot;&gt;&lt;br&gt;&lt;/font&gt;&lt;/b&gt;&lt;/div&gt;&lt;div&gt;&lt;/div&gt;&lt;/div&gt;" style="rounded=1;whiteSpace=wrap;html=1;arcSize=0;" vertex="1" parent="1">
          <mxGeometry x="2577" y="-1159" width="620" height="140" as="geometry" />
        </mxCell>
        <mxCell id="8UgVAGLM6Ib2Gt2lrsU2-2" value="" style="shape=image;verticalLabelPosition=bottom;labelBackgroundColor=default;verticalAlign=top;aspect=fixed;imageAspect=0;editableCssRules=.*;image=data:image/svg+xml,PHN2ZyB4bWxucz0iaHR0cDovL3d3dy53My5vcmcvMjAwMC9zdmciIHZpZXdCb3g9IjAuMDM5MDAwMDM0MzMyMjc1MzkgMCA1NS45MjA5OTc2MTk2Mjg5MDYgNjMuOTk1MDAyNzQ2NTgyMDMiIGhlaWdodD0iNzk5LjkzNzUzNDMzMjI3NTQiIHdpZHRoPSI2OTkuMDEyNDcwMjQ1MzYxMyI+PHBhdGggZmlsbD0iIzQ1QjA1OCIgY2xpcC1ydWxlPSJldmVub2RkIiBmaWxsLXJ1bGU9ImV2ZW5vZGQiIGQ9Ik01LjExMi4wMDZjLTIuODAyIDAtNS4wNzMgMi4yNzMtNS4wNzMgNS4wNzR2NTMuODQxYzAgMi44MDMgMi4yNzEgNS4wNzQgNS4wNzMgNS4wNzRoNDUuNzc0YzIuODAxIDAgNS4wNzQtMi4yNzEgNS4wNzQtNS4wNzR2LTM4LjYwNWwtMTguOTAyLTIwLjMxaC0zMS45NDZ6Ii8+PHBhdGggZmlsbD0iI2ZmZmZmZiIgZD0iTTE5LjQyOSA1My45MzhjLS4yMTYgMC0uNDE1LS4wOS0uNTQtLjI3bC0zLjcyOC00Ljk3LTMuNzQ1IDQuOTdjLS4xMjYuMTgtLjMyNC4yNy0uNTQuMjctLjM5NiAwLS43Mi0uMzA2LS43Mi0uNzIgMC0uMTQ0LjAzNS0uMzA2LjE0NC0uNDMybDMuODktNS4xMzEtMy42MTktNC44MjZjLS4wOS0uMTI2LS4xNDUtLjI3LS4xNDUtLjQxNCAwLS4zNDIuMjg4LS43Mi43MjEtLjcyLjIxNiAwIC40MzIuMTA4LjU3Ni4yODhsMy40MzggNC42MjggMy40MzgtNC42NDZjLjEyNy0uMTguMzI0LS4yNy41NDEtLjI3LjM3OCAwIC43MzguMzA2LjczOC43MiAwIC4xNDQtLjAzNi4yODgtLjEyNy40MTRsLTMuNjE5IDQuODA4IDMuODkxIDUuMTQ5Yy4wOS4xMjYuMTI1LjI3LjEyNS40MTQgMCAuMzk2LS4zMjQuNzM4LS43MTkuNzM4em05Ljk4OS0uMTI2aC01LjQ1NWMtLjU5NSAwLTEuMDgxLS40ODYtMS4wODEtMS4wOHYtMTAuMzE3YzAtLjM5Ni4zMjQtLjcyLjc3NC0uNzIuMzk2IDAgLjcyMS4zMjQuNzIxLjcydjEwLjA2NWg1LjA0MWMuMzU5IDAgLjY0OC4yODguNjQ4LjY0OCAwIC4zOTYtLjI4OS42ODQtLjY0OC42ODR6bTYuOTgyLjIxNmMtMS43ODIgMC0zLjE4OC0uNTk0LTQuMjEzLTEuNDk1LS4xNjItLjE0NC0uMjM0LS4zNDItLjIzNC0uNTQgMC0uMzYuMjctLjc1Ni43MDItLjc1Ni4xNDQgMCAuMzA2LjAzNi40MzMuMTQ0LjgyOC43MzggMS45OCAxLjMxNCAzLjM2NyAxLjMxNCAyLjE0MyAwIDIuODI2LTEuMTUyIDIuODI2LTIuMDcxIDAtMy4wOTctNy4xMTEtMS4zODYtNy4xMTEtNS42NzIgMC0xLjk4IDEuNzY0LTMuMzMxIDQuMTIzLTMuMzMxIDEuNTQ4IDAgMi44ODEuNDY4IDMuODUzIDEuMjc4LjE2Mi4xNDQuMjUzLjM0Mi4yNTMuNTQgMCAuMzYtLjMwNy43Mi0uNzAzLjcyLS4xNDUgMC0uMzA3LS4wNTQtLjQzMi0uMTYyLS44ODMtLjcyLTEuOTgtMS4wNDQtMy4wNzktMS4wNDQtMS40NCAwLTIuNDY3Ljc3NC0yLjQ2NyAxLjkwOSAwIDIuNzAxIDcuMTEyIDEuMTUyIDcuMTEyIDUuNjM2IDAgMS43NDgtMS4xODggMy41My00LjQzIDMuNTN6Ii8+PHBhdGggZmlsbD0iIzM0OUM0MiIgY2xpcC1ydWxlPSJldmVub2RkIiBmaWxsLXJ1bGU9ImV2ZW5vZGQiIGQ9Ik01NS45NTMgMjAuMzUydjFoLTEyLjgwMXMtNi4zMTItMS4yNi02LjEyNy02LjcwN2MwIDAgLjIwNyA1LjcwNyA2LjAwMiA1LjcwN2gxMi45MjZ6Ii8+PHBhdGggZmlsbD0iI2ZmZmZmZiIgY2xpcC1ydWxlPSJldmVub2RkIiBmaWxsLXJ1bGU9ImV2ZW5vZGQiIG9wYWNpdHk9Ii41IiBkPSJNMzcuMDQ5IDB2MTQuNTYxYzAgMS42NTYgMS4xMDQgNS43OTEgNi4xMDQgNS43OTFoMTIuODAxbC0xOC45MDUtMjAuMzUyeiIvPjwvc3ZnPg==;flipV=0;flipH=0;fontSize=20;" vertex="1" parent="1">
          <mxGeometry x="3047" y="-1107.66" width="52.43" height="60" as="geometry" />
        </mxCell>
        <mxCell id="8UgVAGLM6Ib2Gt2lrsU2-3" value="" style="html=1;overflow=block;blockSpacing=1;whiteSpace=wrap;shape=image;fontSize=20;spacing=0;strokeColor=none;rounded=1;absoluteArcSize=1;arcSize=9;strokeWidth=0;image=https://images.lucid.app/images/ce96e295-174c-4b5b-94fa-936bf98bc524/content;imageAspect=0;lucidId=pIxY0kUohqhe;flipV=0;flipH=0;" vertex="1" parent="1">
          <mxGeometry x="3117" y="-1107.66" width="60" height="60" as="geometry" />
        </mxCell>
        <mxCell id="8UgVAGLM6Ib2Gt2lrsU2-4" value="" style="html=1;overflow=block;blockSpacing=1;whiteSpace=wrap;shape=image;fontSize=20;spacing=0;strokeColor=none;rounded=1;absoluteArcSize=1;arcSize=9;strokeWidth=0;image=https://images.lucid.app/images/9e1af045-fd4b-4da5-ac98-e8dabb70b498/content;imageAspect=0;lucidId=pIxY8zV6ijY.;flipV=0;flipH=0;" vertex="1" parent="1">
          <mxGeometry x="2908.5" y="-1108.33" width="68" height="61.34" as="geometry" />
        </mxCell>
        <mxCell id="8UgVAGLM6Ib2Gt2lrsU2-5" value="" style="html=1;overflow=block;blockSpacing=1;whiteSpace=wrap;shape=image;fontSize=20;spacing=0;strokeColor=none;rounded=1;absoluteArcSize=1;arcSize=9;strokeWidth=0;image=https://images.lucid.app/images/ef667a49-4c37-468c-83e2-b0a6cc2de203/content;imageAspect=0;lucidId=pIxY98gicGCk;flipV=0;flipH=0;" vertex="1" parent="1">
          <mxGeometry x="2797" y="-1108.33" width="53.83" height="61.34" as="geometry" />
        </mxCell>
        <mxCell id="8UgVAGLM6Ib2Gt2lrsU2-6" value="" style="html=1;overflow=block;blockSpacing=1;whiteSpace=wrap;shape=image;fontSize=20;spacing=0;strokeColor=none;rounded=1;absoluteArcSize=1;arcSize=9;strokeWidth=0;image=https://images.lucid.app/images/a58b5b0c-9d5b-4e18-a780-fd26e990ed31/content;imageAspect=0;lucidId=pIxYI_luBdS0;flipV=0;flipH=0;" vertex="1" parent="1">
          <mxGeometry x="2848.5" y="-1107.66" width="60" height="60" as="geometry" />
        </mxCell>
        <mxCell id="8UgVAGLM6Ib2Gt2lrsU2-7" value="" style="html=1;overflow=block;blockSpacing=1;whiteSpace=wrap;shape=image;fontSize=20;spacing=0;strokeColor=none;rounded=1;absoluteArcSize=1;arcSize=9;strokeWidth=0;image=https://images.lucid.app/images/c3f4120e-3691-47af-8682-d9e03e8d1b1e/content;imageAspect=0;lucidId=pIxYE3Ukwy7l;flipV=0;flipH=0;" vertex="1" parent="1">
          <mxGeometry x="2973.5" y="-1107.66" width="60" height="60" as="geometry" />
        </mxCell>
        <mxCell id="8UgVAGLM6Ib2Gt2lrsU2-8" value="" style="shape=image;verticalLabelPosition=bottom;labelBackgroundColor=default;verticalAlign=top;aspect=fixed;imageAspect=0;editableCssRules=.*;image=data:image/svg+xml,PHN2ZyB4bWxucz0iaHR0cDovL3d3dy53My5vcmcvMjAwMC9zdmciIGZpbGw9Im5vbmUiIHZpZXdCb3g9IjQgMyAyNCAyOCIgaGVpZ2h0PSI3MDAiIHdpZHRoPSI2MDAiPiYjeGE7PHBhdGggZmlsbD0iI0U0NEQyNiIgZD0iTTYgMjhMNCAzSDI4TDI2IDI4TDE2IDMxTDYgMjhaIi8+JiN4YTs8cGF0aCBmaWxsPSIjRjE2NTI5IiBkPSJNMjYgNUgxNlYyOS41TDI0IDI3TDI2IDVaIi8+JiN4YTs8cGF0aCBmaWxsPSJ3aGl0ZSIgZD0iTTkuNSAxNy41TDguNSA4SDI0TDIzLjUgMTFIMTEuNUwxMiAxNC41SDIzTDIyIDI0TDE2IDI2TDEwIDI0TDkuNSAxOUgxMi41TDEzIDIxLjVMMTYgMjIuNUwxOSAyMS41TDE5LjUgMTcuNUg5LjVaIi8+JiN4YTs8L3N2Zz4=;flipV=0;flipH=0;fontSize=20;" vertex="1" parent="1">
          <mxGeometry x="2597" y="-1108.995" width="53.71" height="62.67" as="geometry" />
        </mxCell>
        <mxCell id="8UgVAGLM6Ib2Gt2lrsU2-9" value="" style="shape=image;verticalLabelPosition=bottom;labelBackgroundColor=default;verticalAlign=top;aspect=fixed;imageAspect=0;editableCssRules=.*;image=data:image/svg+xml,PHN2ZyB4bWxucz0iaHR0cDovL3d3dy53My5vcmcvMjAwMC9zdmciIGZpbGw9Im5vbmUiIHZpZXdCb3g9IjQgMyAyNCAyOCIgaGVpZ2h0PSI3MDAiIHdpZHRoPSI2MDAiPiYjeGE7PHBhdGggZmlsbD0iIzExNzJCOCIgZD0iTTYgMjhMNCAzSDI4TDI2IDI4TDE2IDMxTDYgMjhaIi8+JiN4YTs8cGF0aCBmaWxsPSIjMzNBQUREIiBkPSJNMjYgNUgxNlYyOS41TDI0IDI3TDI2IDVaIi8+JiN4YTs8cGF0aCBmaWxsPSJ3aGl0ZSIgZD0iTTE5LjUgMTcuNUg5LjVMOSAxNEwxNyAxMS41SDlMOC41IDguNUgyNEwyMy41IDEyTDE3IDE0LjVIMjNMMjIgMjRMMTYgMjZMMTAgMjRMOS41IDE5SDEyLjVMMTMgMjEuNUwxNiAyMi41TDE5IDIxLjVMMTkuNSAxNy41WiIvPiYjeGE7PC9zdmc+;flipV=0;flipH=0;fontSize=20;" vertex="1" parent="1">
          <mxGeometry x="2664.5" y="-1108.995" width="53.72" height="62.67" as="geometry" />
        </mxCell>
        <mxCell id="8UgVAGLM6Ib2Gt2lrsU2-10" value="" style="shape=image;verticalLabelPosition=bottom;labelBackgroundColor=default;verticalAlign=top;aspect=fixed;imageAspect=0;editableCssRules=.*;image=data:image/svg+xml,PHN2ZyB4bWxucz0iaHR0cDovL3d3dy53My5vcmcvMjAwMC9zdmciIHZpZXdCb3g9IjAgMCA1MTIgNTEyIiByb2xlPSJpbWciIGFyaWEtbGFiZWw9IkphdmFTY3JpcHQiIHdpZHRoPSI1MTIiIGhlaWdodD0iNTEyIj48cmVjdCBmaWxsPSIjZjdkZjFlIiByeD0iMTUlIiBoZWlnaHQ9IjUxMiIgd2lkdGg9IjUxMiIvPjxwYXRoIGQ9Ik0zMjQgMzcwYzEwIDE3IDI0IDI5IDQ3IDI5YzIwIDAgMzMtMTAgMzMgLTI0YzAtMTYgLTEzIC0yMiAtMzUgLTMybC0xMi01Yy0zNS0xNSAtNTggLTMzIC01OCAtNzJjMC0zNiAyNyAtNjQgNzAgLTY0YzMxIDAgNTMgMTEgNjggMzlsLTM3IDI0Yy04LTE1IC0xNyAtMjEgLTMxIC0yMWMtMTQgMC0yMyA5IC0yMyAyMWMwIDE0IDkgMjAgMzAgMjlsMTIgNWM0MSAxOCA2NCAzNSA2NCA3NmMwIDQzLTM0IDY3IC04MCA2N2MtNDUgMC03NCAtMjEgLTg4IC00OXptLTE3MCA0YzggMTMgMTQgMjUgMzEgMjVjMTYgMCAyNi02IDI2IC0zMFYyMDNoNDh2MTY0YzAgNTAtMjkgNzIgLTcyIDcyYy0zOSAwLTYxIC0yMCAtNzIgLTQ0eiIvPjwvc3ZnPg==;flipV=0;flipH=0;fontSize=20;" vertex="1" parent="1">
          <mxGeometry x="2734.5" y="-1103.995" width="52.67" height="52.67" as="geometry" />
        </mxCell>
        <mxCell id="8UgVAGLM6Ib2Gt2lrsU2-11" style="edgeStyle=orthogonalEdgeStyle;rounded=0;orthogonalLoop=1;jettySize=auto;html=1;entryX=0.5;entryY=0;entryDx=0;entryDy=0;fontSize=20;startSize=8;endSize=8;strokeColor=light-dark(#001DBC,#429AFF);strokeWidth=8;fillColor=#0050ef;fontStyle=1;exitX=0.5;exitY=1;exitDx=0;exitDy=0;labelBorderColor=default;" edge="1" parent="1" source="8UgVAGLM6Ib2Gt2lrsU2-76" target="8UgVAGLM6Ib2Gt2lrsU2-13">
          <mxGeometry relative="1" as="geometry">
            <mxPoint x="-210" y="-140" as="sourcePoint" />
          </mxGeometry>
        </mxCell>
        <mxCell id="8UgVAGLM6Ib2Gt2lrsU2-13" value="&lt;span data-lucid-content=&quot;{&amp;quot;t&amp;quot;:&amp;quot;NEU Admission&#39;s Hero Page\n\nGoogle Login Button&amp;quot;,&amp;quot;m&amp;quot;:[{&amp;quot;s&amp;quot;:0,&amp;quot;n&amp;quot;:&amp;quot;s&amp;quot;,&amp;quot;v&amp;quot;:22.22222222222222,&amp;quot;e&amp;quot;:46},{&amp;quot;s&amp;quot;:0,&amp;quot;n&amp;quot;:&amp;quot;fsp&amp;quot;,&amp;quot;v&amp;quot;:&amp;quot;ss_presetShapeStyle1_textStyle&amp;quot;,&amp;quot;e&amp;quot;:46},{&amp;quot;s&amp;quot;:0,&amp;quot;n&amp;quot;:&amp;quot;fsp2&amp;quot;,&amp;quot;v&amp;quot;:&amp;quot;ss_presetShapeStyle1_textStyle&amp;quot;,&amp;quot;e&amp;quot;:46},{&amp;quot;s&amp;quot;:27,&amp;quot;n&amp;quot;:&amp;quot;t&amp;quot;,&amp;quot;v&amp;quot;:&amp;quot;ul&amp;quot;},{&amp;quot;s&amp;quot;:27,&amp;quot;n&amp;quot;:&amp;quot;l&amp;quot;,&amp;quot;v&amp;quot;:&amp;quot;auto&amp;quot;},{&amp;quot;s&amp;quot;:27,&amp;quot;n&amp;quot;:&amp;quot;il&amp;quot;,&amp;quot;v&amp;quot;:22.22222222222222},{&amp;quot;s&amp;quot;:27,&amp;quot;n&amp;quot;:&amp;quot;fl&amp;quot;,&amp;quot;v&amp;quot;:22.22222222222222}]}&quot; data-lucid-type=&quot;application/vnd.lucid.text&quot;&gt;&lt;font&gt;&lt;span&gt;NEU Admission&#39;s Hero Page&lt;br&gt;&lt;/span&gt;&lt;span&gt;&lt;br&gt;&lt;/span&gt;&lt;span&gt;Google Login Button&lt;/span&gt;&lt;/font&gt;&lt;/span&gt;" style="rounded=1;whiteSpace=wrap;html=1;absoluteArcSize=1;arcSize=14;strokeWidth=2;fontSize=27;fontStyle=1" vertex="1" parent="1">
          <mxGeometry x="-340" y="40" width="260" height="220" as="geometry" />
        </mxCell>
        <mxCell id="8UgVAGLM6Ib2Gt2lrsU2-14" style="edgeStyle=none;curved=1;rounded=0;orthogonalLoop=1;jettySize=auto;html=1;exitX=1;exitY=0.5;exitDx=0;exitDy=0;entryX=0;entryY=0.5;entryDx=0;entryDy=0;fontSize=20;startSize=8;endSize=8;strokeColor=light-dark(#001DBC,#429AFF);strokeWidth=8;fillColor=#0050ef;fontStyle=1" edge="1" parent="1" source="8UgVAGLM6Ib2Gt2lrsU2-13" target="8UgVAGLM6Ib2Gt2lrsU2-16">
          <mxGeometry relative="1" as="geometry">
            <mxPoint x="320" y="150" as="sourcePoint" />
          </mxGeometry>
        </mxCell>
        <mxCell id="8UgVAGLM6Ib2Gt2lrsU2-16" value="&lt;span data-lucid-content=&quot;{&amp;quot;t&amp;quot;:&amp;quot;Data&amp;quot;,&amp;quot;m&amp;quot;:[{&amp;quot;s&amp;quot;:0,&amp;quot;n&amp;quot;:&amp;quot;s&amp;quot;,&amp;quot;v&amp;quot;:22.22222222222222,&amp;quot;e&amp;quot;:4},{&amp;quot;s&amp;quot;:0,&amp;quot;n&amp;quot;:&amp;quot;fsp&amp;quot;,&amp;quot;v&amp;quot;:&amp;quot;ss_presetShapeStyle1_textStyle&amp;quot;,&amp;quot;e&amp;quot;:4},{&amp;quot;s&amp;quot;:0,&amp;quot;n&amp;quot;:&amp;quot;fsp2&amp;quot;,&amp;quot;v&amp;quot;:&amp;quot;ss_presetShapeStyle1_textStyle&amp;quot;,&amp;quot;e&amp;quot;:4}]}&quot; data-lucid-type=&quot;application/vnd.lucid.text&quot;&gt;&lt;span style=&quot;color: rgb(0, 0, 0);&quot;&gt;Data&lt;/span&gt;&lt;/span&gt;" style="shape=parallelogram;html=1;strokeWidth=2;perimeter=parallelogramPerimeter;whiteSpace=wrap;rounded=1;arcSize=12;size=0.23;fontSize=50;fontStyle=1" vertex="1" parent="1">
          <mxGeometry x="460" y="90" width="310" height="120" as="geometry" />
        </mxCell>
        <mxCell id="8UgVAGLM6Ib2Gt2lrsU2-115" style="edgeStyle=orthogonalEdgeStyle;rounded=0;orthogonalLoop=1;jettySize=auto;html=1;entryX=0.5;entryY=0;entryDx=0;entryDy=0;" edge="1" parent="1" source="8UgVAGLM6Ib2Gt2lrsU2-17" target="8UgVAGLM6Ib2Gt2lrsU2-88">
          <mxGeometry relative="1" as="geometry" />
        </mxCell>
        <mxCell id="8UgVAGLM6Ib2Gt2lrsU2-184" style="edgeStyle=orthogonalEdgeStyle;rounded=0;orthogonalLoop=1;jettySize=auto;html=1;entryX=0.5;entryY=0;entryDx=0;entryDy=0;" edge="1" parent="1" source="8UgVAGLM6Ib2Gt2lrsU2-17" target="8UgVAGLM6Ib2Gt2lrsU2-163">
          <mxGeometry relative="1" as="geometry" />
        </mxCell>
        <mxCell id="8UgVAGLM6Ib2Gt2lrsU2-17" value="&lt;span&gt;&lt;font style=&quot;font-size: 43px;&quot;&gt;MAIN UI&lt;/font&gt;&lt;/span&gt;&lt;div&gt;&lt;span&gt;&lt;font style=&quot;font-size: 43px;&quot;&gt;&lt;br&gt;&lt;/font&gt;&lt;/span&gt;&lt;/div&gt;&lt;div&gt;&lt;span&gt;&lt;font style=&quot;font-size: 43px;&quot;&gt;&lt;br&gt;&lt;/font&gt;&lt;/span&gt;&lt;/div&gt;&lt;div&gt;&lt;span&gt;&lt;font style=&quot;font-size: 43px;&quot;&gt;&lt;br&gt;&lt;/font&gt;&lt;/span&gt;&lt;/div&gt;&lt;div&gt;&lt;span&gt;&lt;font style=&quot;font-size: 43px;&quot;&gt;&lt;br&gt;&lt;/font&gt;&lt;/span&gt;&lt;/div&gt;&lt;div&gt;&lt;span&gt;&lt;font style=&quot;font-size: 43px;&quot;&gt;&lt;br&gt;&lt;/font&gt;&lt;/span&gt;&lt;/div&gt;&lt;div&gt;&lt;span&gt;&lt;font style=&quot;font-size: 43px;&quot;&gt;&lt;br&gt;&lt;/font&gt;&lt;/span&gt;&lt;/div&gt;&lt;div&gt;&lt;span&gt;&lt;font style=&quot;font-size: 43px;&quot;&gt;&lt;br&gt;&lt;/font&gt;&lt;/span&gt;&lt;/div&gt;&lt;div&gt;&lt;span&gt;&lt;font style=&quot;font-size: 43px;&quot;&gt;&lt;br&gt;&lt;/font&gt;&lt;/span&gt;&lt;/div&gt;&lt;div&gt;&lt;span&gt;&lt;font style=&quot;font-size: 43px;&quot;&gt;&lt;br&gt;&lt;/font&gt;&lt;/span&gt;&lt;/div&gt;&lt;div&gt;&lt;span&gt;&lt;font style=&quot;font-size: 43px;&quot;&gt;&lt;br&gt;&lt;/font&gt;&lt;/span&gt;&lt;/div&gt;&lt;div&gt;&lt;span&gt;&lt;font style=&quot;font-size: 43px;&quot;&gt;&lt;br&gt;&lt;/font&gt;&lt;/span&gt;&lt;/div&gt;&lt;div&gt;&lt;span&gt;&lt;font style=&quot;font-size: 43px;&quot;&gt;&lt;br&gt;&lt;/font&gt;&lt;/span&gt;&lt;/div&gt;&lt;div&gt;&lt;span&gt;&lt;font style=&quot;font-size: 43px;&quot;&gt;&lt;br&gt;&lt;/font&gt;&lt;/span&gt;&lt;/div&gt;&lt;div&gt;&lt;span&gt;&lt;font style=&quot;font-size: 43px;&quot;&gt;&lt;br&gt;&lt;/font&gt;&lt;/span&gt;&lt;/div&gt;&lt;div&gt;&lt;span&gt;&lt;font style=&quot;font-size: 43px;&quot;&gt;&lt;br&gt;&lt;/font&gt;&lt;/span&gt;&lt;/div&gt;&lt;div&gt;&lt;span&gt;&lt;font style=&quot;font-size: 43px;&quot;&gt;&lt;br&gt;&lt;/font&gt;&lt;/span&gt;&lt;/div&gt;&lt;div&gt;&lt;span&gt;&lt;font style=&quot;font-size: 43px;&quot;&gt;&lt;br&gt;&lt;/font&gt;&lt;/span&gt;&lt;/div&gt;&lt;div&gt;&lt;br&gt;&lt;/div&gt;" style="rounded=1;whiteSpace=wrap;html=1;absoluteArcSize=1;arcSize=14;strokeWidth=2;fontSize=20;fontStyle=1" vertex="1" parent="1">
          <mxGeometry x="880" y="200" width="1210" height="970" as="geometry" />
        </mxCell>
        <mxCell id="8UgVAGLM6Ib2Gt2lrsU2-18" value="&lt;span data-lucid-type=&quot;application/vnd.lucid.text&quot; data-lucid-content=&quot;{&amp;quot;t&amp;quot;:&amp;quot;Step by Step Sections/Nav&amp;quot;,&amp;quot;m&amp;quot;:[{&amp;quot;s&amp;quot;:0,&amp;quot;n&amp;quot;:&amp;quot;s&amp;quot;,&amp;quot;v&amp;quot;:22.22222222222222,&amp;quot;e&amp;quot;:25},{&amp;quot;s&amp;quot;:0,&amp;quot;n&amp;quot;:&amp;quot;fsp&amp;quot;,&amp;quot;v&amp;quot;:&amp;quot;ss_presetShapeStyle1_textStyle&amp;quot;,&amp;quot;e&amp;quot;:25},{&amp;quot;s&amp;quot;:0,&amp;quot;n&amp;quot;:&amp;quot;fsp2&amp;quot;,&amp;quot;v&amp;quot;:&amp;quot;ss_presetShapeStyle1_textStyle&amp;quot;,&amp;quot;e&amp;quot;:25}]}&quot;&gt;&lt;span style=&quot;color: rgb(0, 0, 0);&quot;&gt;Nav Bar&lt;/span&gt;&lt;/span&gt;" style="rounded=1;whiteSpace=wrap;html=1;absoluteArcSize=1;arcSize=14;strokeWidth=2;fontSize=39;fontStyle=1" vertex="1" parent="1">
          <mxGeometry x="1300" y="290.63" width="750" height="100" as="geometry" />
        </mxCell>
        <mxCell id="8UgVAGLM6Ib2Gt2lrsU2-19" value="&lt;span data-lucid-type=&quot;application/vnd.lucid.text&quot; data-lucid-content=&quot;{&amp;quot;t&amp;quot;:&amp;quot;Applicant info&amp;quot;,&amp;quot;m&amp;quot;:[{&amp;quot;s&amp;quot;:0,&amp;quot;n&amp;quot;:&amp;quot;s&amp;quot;,&amp;quot;v&amp;quot;:22.22222222222222,&amp;quot;e&amp;quot;:14},{&amp;quot;s&amp;quot;:0,&amp;quot;n&amp;quot;:&amp;quot;fsp&amp;quot;,&amp;quot;v&amp;quot;:&amp;quot;ss_presetShapeStyle1_textStyle&amp;quot;,&amp;quot;e&amp;quot;:14},{&amp;quot;s&amp;quot;:0,&amp;quot;n&amp;quot;:&amp;quot;fsp2&amp;quot;,&amp;quot;v&amp;quot;:&amp;quot;ss_presetShapeStyle1_textStyle&amp;quot;,&amp;quot;e&amp;quot;:14}]}&quot;&gt;&lt;span style=&quot;color: rgb(0, 0, 0);&quot;&gt;Applicant info&lt;/span&gt;&lt;/span&gt;" style="rounded=1;whiteSpace=wrap;html=1;absoluteArcSize=1;arcSize=14;strokeWidth=2;fontSize=30;fontStyle=1" vertex="1" parent="1">
          <mxGeometry x="1257" y="-713" width="293" height="100" as="geometry" />
        </mxCell>
        <mxCell id="8UgVAGLM6Ib2Gt2lrsU2-20" value="&lt;span data-lucid-type=&quot;application/vnd.lucid.text&quot; data-lucid-content=&quot;{&amp;quot;t&amp;quot;:&amp;quot;Acad Info&amp;quot;,&amp;quot;m&amp;quot;:[{&amp;quot;s&amp;quot;:0,&amp;quot;n&amp;quot;:&amp;quot;s&amp;quot;,&amp;quot;v&amp;quot;:22.22222222222222,&amp;quot;e&amp;quot;:9},{&amp;quot;s&amp;quot;:0,&amp;quot;n&amp;quot;:&amp;quot;fsp&amp;quot;,&amp;quot;v&amp;quot;:&amp;quot;ss_presetShapeStyle1_textStyle&amp;quot;,&amp;quot;e&amp;quot;:9},{&amp;quot;s&amp;quot;:0,&amp;quot;n&amp;quot;:&amp;quot;fsp2&amp;quot;,&amp;quot;v&amp;quot;:&amp;quot;ss_presetShapeStyle1_textStyle&amp;quot;,&amp;quot;e&amp;quot;:9}]}&quot;&gt;&lt;span style=&quot;color: rgb(0, 0, 0);&quot;&gt;Acad Info&lt;/span&gt;&lt;/span&gt;" style="rounded=1;whiteSpace=wrap;html=1;absoluteArcSize=1;arcSize=14;strokeWidth=2;fontSize=30;fontStyle=1" vertex="1" parent="1">
          <mxGeometry x="1260" y="-583" width="293" height="100" as="geometry" />
        </mxCell>
        <mxCell id="8UgVAGLM6Ib2Gt2lrsU2-21" value="&lt;span data-lucid-type=&quot;application/vnd.lucid.text&quot; data-lucid-content=&quot;{&amp;quot;t&amp;quot;:&amp;quot;Admission Requirements&amp;quot;,&amp;quot;m&amp;quot;:[{&amp;quot;s&amp;quot;:0,&amp;quot;n&amp;quot;:&amp;quot;s&amp;quot;,&amp;quot;v&amp;quot;:22.22222222222222,&amp;quot;e&amp;quot;:22},{&amp;quot;s&amp;quot;:0,&amp;quot;n&amp;quot;:&amp;quot;fsp&amp;quot;,&amp;quot;v&amp;quot;:&amp;quot;ss_presetShapeStyle1_textStyle&amp;quot;,&amp;quot;e&amp;quot;:22},{&amp;quot;s&amp;quot;:0,&amp;quot;n&amp;quot;:&amp;quot;fsp2&amp;quot;,&amp;quot;v&amp;quot;:&amp;quot;ss_presetShapeStyle1_textStyle&amp;quot;,&amp;quot;e&amp;quot;:22}]}&quot;&gt;&lt;span style=&quot;color: rgb(0, 0, 0);&quot;&gt;Admission Requirements&lt;/span&gt;&lt;/span&gt;" style="rounded=1;whiteSpace=wrap;html=1;absoluteArcSize=1;arcSize=14;strokeWidth=2;fontSize=30;fontStyle=1" vertex="1" parent="1">
          <mxGeometry x="1260" y="-443" width="293" height="100" as="geometry" />
        </mxCell>
        <mxCell id="8UgVAGLM6Ib2Gt2lrsU2-22" value="&lt;span data-lucid-type=&quot;application/vnd.lucid.text&quot; data-lucid-content=&quot;{&amp;quot;t&amp;quot;:&amp;quot;Exam Sched&amp;quot;,&amp;quot;m&amp;quot;:[{&amp;quot;s&amp;quot;:0,&amp;quot;n&amp;quot;:&amp;quot;s&amp;quot;,&amp;quot;v&amp;quot;:22.22222222222222,&amp;quot;e&amp;quot;:10},{&amp;quot;s&amp;quot;:0,&amp;quot;n&amp;quot;:&amp;quot;fsp&amp;quot;,&amp;quot;v&amp;quot;:&amp;quot;ss_presetShapeStyle1_textStyle&amp;quot;,&amp;quot;e&amp;quot;:10},{&amp;quot;s&amp;quot;:0,&amp;quot;n&amp;quot;:&amp;quot;fsp2&amp;quot;,&amp;quot;v&amp;quot;:&amp;quot;ss_presetShapeStyle1_textStyle&amp;quot;,&amp;quot;e&amp;quot;:10}]}&quot;&gt;&lt;span style=&quot;color: rgb(0, 0, 0);&quot;&gt;Exam Sched&lt;/span&gt;&lt;/span&gt;" style="rounded=1;whiteSpace=wrap;html=1;absoluteArcSize=1;arcSize=14;strokeWidth=2;fontSize=30;fontStyle=1" vertex="1" parent="1">
          <mxGeometry x="1300" y="430" width="270" height="150" as="geometry" />
        </mxCell>
        <mxCell id="8UgVAGLM6Ib2Gt2lrsU2-23" style="edgeStyle=orthogonalEdgeStyle;rounded=0;orthogonalLoop=1;jettySize=auto;html=1;exitX=1;exitY=0.5;exitDx=0;exitDy=0;entryX=0;entryY=0.5;entryDx=0;entryDy=0;fontSize=23;startSize=8;endSize=8;strokeWidth=8;fillColor=#0050ef;strokeColor=light-dark(#001DBC,#429AFF);fontStyle=0" edge="1" parent="1" source="8UgVAGLM6Ib2Gt2lrsU2-25" target="8UgVAGLM6Ib2Gt2lrsU2-53">
          <mxGeometry relative="1" as="geometry">
            <Array as="points">
              <mxPoint x="2220" y="1000" />
              <mxPoint x="2220" y="-80" />
            </Array>
          </mxGeometry>
        </mxCell>
        <mxCell id="8UgVAGLM6Ib2Gt2lrsU2-24" value="3" style="edgeLabel;html=1;align=center;verticalAlign=middle;resizable=0;points=[];fontSize=50;fontStyle=1;fontColor=light-dark(#005700,#3F991B);" vertex="1" connectable="0" parent="8UgVAGLM6Ib2Gt2lrsU2-23">
          <mxGeometry x="-0.804" y="-4" relative="1" as="geometry">
            <mxPoint as="offset" />
          </mxGeometry>
        </mxCell>
        <mxCell id="8UgVAGLM6Ib2Gt2lrsU2-25" value="&lt;span data-lucid-type=&quot;application/vnd.lucid.text&quot; data-lucid-content=&quot;{&amp;quot;t&amp;quot;:&amp;quot;FormData&amp;quot;,&amp;quot;m&amp;quot;:[{&amp;quot;s&amp;quot;:0,&amp;quot;n&amp;quot;:&amp;quot;s&amp;quot;,&amp;quot;v&amp;quot;:22.22222222222222,&amp;quot;e&amp;quot;:8},{&amp;quot;s&amp;quot;:0,&amp;quot;n&amp;quot;:&amp;quot;fsp&amp;quot;,&amp;quot;v&amp;quot;:&amp;quot;ss_presetShapeStyle1_textStyle&amp;quot;,&amp;quot;e&amp;quot;:8},{&amp;quot;s&amp;quot;:0,&amp;quot;n&amp;quot;:&amp;quot;fsp2&amp;quot;,&amp;quot;v&amp;quot;:&amp;quot;ss_presetShapeStyle1_textStyle&amp;quot;,&amp;quot;e&amp;quot;:8}]}&quot;&gt;&lt;span style=&quot;color: rgb(0, 0, 0);&quot;&gt;FormData&lt;/span&gt;&lt;/span&gt;" style="shape=parallelogram;html=1;strokeWidth=2;perimeter=parallelogramPerimeter;whiteSpace=wrap;rounded=1;arcSize=12;size=0.23;fontSize=30;fontStyle=1" vertex="1" parent="1">
          <mxGeometry x="1270" y="950" width="250" height="100" as="geometry" />
        </mxCell>
        <mxCell id="8UgVAGLM6Ib2Gt2lrsU2-26" style="edgeStyle=orthogonalEdgeStyle;rounded=0;orthogonalLoop=1;jettySize=auto;html=1;exitX=0;exitY=0.5;exitDx=0;exitDy=0;entryX=1;entryY=0.5;entryDx=0;entryDy=0;fontSize=20;startSize=8;endSize=8;fontStyle=1;strokeColor=light-dark(#000000,#F7FF11);strokeWidth=3;" edge="1" parent="1" source="8UgVAGLM6Ib2Gt2lrsU2-29" target="8UgVAGLM6Ib2Gt2lrsU2-19">
          <mxGeometry relative="1" as="geometry" />
        </mxCell>
        <mxCell id="8UgVAGLM6Ib2Gt2lrsU2-27" style="edgeStyle=orthogonalEdgeStyle;rounded=0;orthogonalLoop=1;jettySize=auto;html=1;entryX=1;entryY=0.5;entryDx=0;entryDy=0;fontSize=20;startSize=8;endSize=8;fontStyle=1;strokeColor=light-dark(#000000,#F7FF11);strokeWidth=3;" edge="1" parent="1" source="8UgVAGLM6Ib2Gt2lrsU2-29" target="8UgVAGLM6Ib2Gt2lrsU2-20">
          <mxGeometry relative="1" as="geometry" />
        </mxCell>
        <mxCell id="8UgVAGLM6Ib2Gt2lrsU2-28" style="edgeStyle=orthogonalEdgeStyle;rounded=0;orthogonalLoop=1;jettySize=auto;html=1;entryX=1;entryY=0.5;entryDx=0;entryDy=0;fontSize=20;startSize=8;endSize=8;fontStyle=1;strokeColor=light-dark(#000000,#F7FF11);strokeWidth=3;" edge="1" parent="1" source="8UgVAGLM6Ib2Gt2lrsU2-29" target="8UgVAGLM6Ib2Gt2lrsU2-21">
          <mxGeometry relative="1" as="geometry" />
        </mxCell>
        <mxCell id="8UgVAGLM6Ib2Gt2lrsU2-29" value="&lt;span data-lucid-type=&quot;application/vnd.lucid.text&quot; data-lucid-content=&quot;{&amp;quot;t&amp;quot;:&amp;quot;Form Inputs&amp;quot;,&amp;quot;m&amp;quot;:[{&amp;quot;s&amp;quot;:0,&amp;quot;n&amp;quot;:&amp;quot;s&amp;quot;,&amp;quot;v&amp;quot;:22.22222222222222,&amp;quot;e&amp;quot;:11},{&amp;quot;s&amp;quot;:0,&amp;quot;n&amp;quot;:&amp;quot;fsp&amp;quot;,&amp;quot;v&amp;quot;:&amp;quot;ss_presetShapeStyle1_textStyle&amp;quot;,&amp;quot;e&amp;quot;:11},{&amp;quot;s&amp;quot;:0,&amp;quot;n&amp;quot;:&amp;quot;fsp2&amp;quot;,&amp;quot;v&amp;quot;:&amp;quot;ss_presetShapeStyle1_textStyle&amp;quot;,&amp;quot;e&amp;quot;:11}]}&quot;&gt;&lt;span style=&quot;color: rgb(0, 0, 0);&quot;&gt;Form Inputs&lt;/span&gt;&lt;/span&gt;" style="rounded=1;whiteSpace=wrap;html=1;absoluteArcSize=1;arcSize=14;strokeWidth=2;fontSize=30;fontStyle=1" vertex="1" parent="1">
          <mxGeometry x="1840" y="-603" width="170" height="160" as="geometry" />
        </mxCell>
        <mxCell id="8UgVAGLM6Ib2Gt2lrsU2-30" style="edgeStyle=orthogonalEdgeStyle;rounded=0;orthogonalLoop=1;jettySize=auto;html=1;fontSize=20;startSize=8;endSize=8;fontStyle=1;strokeWidth=8;fillColor=#0050ef;strokeColor=#001DBC;exitX=0.5;exitY=1;exitDx=0;exitDy=0;" edge="1" parent="1" source="8UgVAGLM6Ib2Gt2lrsU2-29">
          <mxGeometry relative="1" as="geometry">
            <mxPoint x="1925" y="630" as="targetPoint" />
          </mxGeometry>
        </mxCell>
        <mxCell id="8UgVAGLM6Ib2Gt2lrsU2-31" style="edgeStyle=orthogonalEdgeStyle;rounded=0;orthogonalLoop=1;jettySize=auto;html=1;entryX=0.5;entryY=0;entryDx=0;entryDy=0;fontSize=12;startSize=8;endSize=8;fillColor=#0050ef;strokeColor=#001DBC;strokeWidth=8;" edge="1" parent="1" source="8UgVAGLM6Ib2Gt2lrsU2-32" target="8UgVAGLM6Ib2Gt2lrsU2-29">
          <mxGeometry relative="1" as="geometry" />
        </mxCell>
        <mxCell id="8UgVAGLM6Ib2Gt2lrsU2-32" value="&lt;span data-lucid-type=&quot;application/vnd.lucid.text&quot; data-lucid-content=&quot;{&amp;quot;t&amp;quot;:&amp;quot;formSchema&amp;quot;,&amp;quot;m&amp;quot;:[{&amp;quot;s&amp;quot;:0,&amp;quot;n&amp;quot;:&amp;quot;s&amp;quot;,&amp;quot;v&amp;quot;:22.22222222222222,&amp;quot;e&amp;quot;:10},{&amp;quot;s&amp;quot;:0,&amp;quot;n&amp;quot;:&amp;quot;fsp&amp;quot;,&amp;quot;v&amp;quot;:&amp;quot;ss_presetShapeStyle1_textStyle&amp;quot;,&amp;quot;e&amp;quot;:10},{&amp;quot;s&amp;quot;:0,&amp;quot;n&amp;quot;:&amp;quot;fsp2&amp;quot;,&amp;quot;v&amp;quot;:&amp;quot;ss_presetShapeStyle1_textStyle&amp;quot;,&amp;quot;e&amp;quot;:10}]}&quot;&gt;&lt;span style=&quot;color: rgb(0, 0, 0);&quot;&gt;formSchema&lt;/span&gt;&lt;/span&gt;" style="shape=parallelogram;html=1;strokeWidth=2;perimeter=parallelogramPerimeter;whiteSpace=wrap;rounded=1;arcSize=12;size=0.23;fontSize=30;fontStyle=1" vertex="1" parent="1">
          <mxGeometry x="1800" y="-773" width="250" height="100" as="geometry" />
        </mxCell>
        <mxCell id="8UgVAGLM6Ib2Gt2lrsU2-33" style="edgeStyle=none;curved=1;rounded=0;orthogonalLoop=1;jettySize=auto;html=1;fontSize=20;startSize=8;endSize=8;fontStyle=1;entryX=0.975;entryY=0.5;entryDx=0;entryDy=0;entryPerimeter=0;" edge="1" parent="1" source="8UgVAGLM6Ib2Gt2lrsU2-36" target="8UgVAGLM6Ib2Gt2lrsU2-36">
          <mxGeometry relative="1" as="geometry" />
        </mxCell>
        <mxCell id="8UgVAGLM6Ib2Gt2lrsU2-34" style="edgeStyle=none;curved=1;rounded=0;orthogonalLoop=1;jettySize=auto;html=1;fontSize=20;startSize=8;endSize=8;fontStyle=1;strokeWidth=8;fillColor=#0050ef;strokeColor=#001DBC;" edge="1" parent="1" source="8UgVAGLM6Ib2Gt2lrsU2-36" target="8UgVAGLM6Ib2Gt2lrsU2-44">
          <mxGeometry relative="1" as="geometry" />
        </mxCell>
        <mxCell id="8UgVAGLM6Ib2Gt2lrsU2-35" value="Enable" style="edgeLabel;html=1;align=center;verticalAlign=middle;resizable=0;points=[];fontSize=30;fontStyle=1" vertex="1" connectable="0" parent="8UgVAGLM6Ib2Gt2lrsU2-34">
          <mxGeometry x="-0.1671" y="-1" relative="1" as="geometry">
            <mxPoint as="offset" />
          </mxGeometry>
        </mxCell>
        <mxCell id="8UgVAGLM6Ib2Gt2lrsU2-36" value="&lt;span data-lucid-type=&quot;application/vnd.lucid.text&quot; data-lucid-content=&quot;{&amp;quot;t&amp;quot;:&amp;quot;If valid&amp;quot;,&amp;quot;m&amp;quot;:[{&amp;quot;s&amp;quot;:0,&amp;quot;n&amp;quot;:&amp;quot;s&amp;quot;,&amp;quot;v&amp;quot;:22.22222222222222,&amp;quot;e&amp;quot;:8},{&amp;quot;s&amp;quot;:0,&amp;quot;n&amp;quot;:&amp;quot;fsp&amp;quot;,&amp;quot;v&amp;quot;:&amp;quot;ss_presetShapeStyle1_textStyle&amp;quot;,&amp;quot;e&amp;quot;:8},{&amp;quot;s&amp;quot;:0,&amp;quot;n&amp;quot;:&amp;quot;fsp2&amp;quot;,&amp;quot;v&amp;quot;:&amp;quot;ss_presetShapeStyle1_textStyle&amp;quot;,&amp;quot;e&amp;quot;:8}]}&quot;&gt;&lt;span style=&quot;color: rgb(0, 0, 0);&quot;&gt;If valid&lt;/span&gt;&lt;/span&gt;" style="strokeWidth=2;html=1;shape=mxgraph.flowchart.decision;whiteSpace=wrap;fontSize=30;fontStyle=1" vertex="1" parent="1">
          <mxGeometry x="1825" y="-363" width="200" height="220" as="geometry" />
        </mxCell>
        <mxCell id="8UgVAGLM6Ib2Gt2lrsU2-37" style="edgeStyle=orthogonalEdgeStyle;rounded=0;orthogonalLoop=1;jettySize=auto;html=1;entryX=0;entryY=0.5;entryDx=0;entryDy=0;fontSize=12;startSize=8;endSize=8;strokeWidth=6;fillColor=#008a00;strokeColor=light-dark(#005700,#3F991B);" edge="1" parent="1" source="8UgVAGLM6Ib2Gt2lrsU2-38" target="8UgVAGLM6Ib2Gt2lrsU2-13">
          <mxGeometry relative="1" as="geometry" />
        </mxCell>
        <mxCell id="8UgVAGLM6Ib2Gt2lrsU2-38" value="&lt;span style=&quot;color: rgba(0, 0, 0, 0); font-family: monospace; font-size: 0px; font-weight: 400; text-align: start; text-wrap-mode: nowrap;&quot;&gt;ddgdfgdfg&lt;/span&gt;" style="verticalLabelPosition=middle;verticalAlign=middle;html=1;shape=trapezoid;perimeter=trapezoidPerimeter;whiteSpace=wrap;size=0.23;arcSize=10;flipV=1;labelPosition=center;align=center;fontSize=20;fontStyle=1" vertex="1" parent="1">
          <mxGeometry x="-820" y="9.380000000000003" width="380" height="281.25" as="geometry" />
        </mxCell>
        <mxCell id="8UgVAGLM6Ib2Gt2lrsU2-39" style="edgeStyle=orthogonalEdgeStyle;rounded=0;orthogonalLoop=1;jettySize=auto;html=1;entryX=0;entryY=0.75;entryDx=0;entryDy=0;fontSize=12;startSize=8;endSize=8;strokeWidth=6;fillColor=#008a00;strokeColor=light-dark(#005700,#3F991B);" edge="1" parent="1" source="8UgVAGLM6Ib2Gt2lrsU2-40" target="8UgVAGLM6Ib2Gt2lrsU2-17">
          <mxGeometry relative="1" as="geometry" />
        </mxCell>
        <mxCell id="8UgVAGLM6Ib2Gt2lrsU2-40" value="" style="verticalLabelPosition=middle;verticalAlign=middle;html=1;shape=trapezoid;perimeter=trapezoidPerimeter;whiteSpace=wrap;size=0.23;arcSize=10;flipV=1;labelPosition=center;align=center;fontSize=20;fontStyle=1" vertex="1" parent="1">
          <mxGeometry x="-20" y="960" width="380" height="230" as="geometry" />
        </mxCell>
        <mxCell id="8UgVAGLM6Ib2Gt2lrsU2-41" style="edgeStyle=orthogonalEdgeStyle;rounded=0;orthogonalLoop=1;jettySize=auto;html=1;entryX=0;entryY=0.5;entryDx=0;entryDy=0;fontSize=23;startSize=8;endSize=8;strokeWidth=8;fillColor=#0050ef;strokeColor=light-dark(#001DBC,#429AFF);fontStyle=0" edge="1" parent="1" source="8UgVAGLM6Ib2Gt2lrsU2-44" target="8UgVAGLM6Ib2Gt2lrsU2-50">
          <mxGeometry relative="1" as="geometry" />
        </mxCell>
        <mxCell id="8UgVAGLM6Ib2Gt2lrsU2-42" value="Upload&lt;div&gt;&lt;br&gt;&lt;/div&gt;" style="edgeLabel;html=1;align=center;verticalAlign=middle;resizable=0;points=[];fontSize=34;fontStyle=1" vertex="1" connectable="0" parent="8UgVAGLM6Ib2Gt2lrsU2-41">
          <mxGeometry x="-0.2434" y="-7" relative="1" as="geometry">
            <mxPoint x="84" y="8" as="offset" />
          </mxGeometry>
        </mxCell>
        <mxCell id="8UgVAGLM6Ib2Gt2lrsU2-43" value="1" style="edgeLabel;html=1;align=center;verticalAlign=middle;resizable=0;points=[];fontSize=50;fontStyle=1;fontColor=light-dark(#005700,#3F991B);" vertex="1" connectable="0" parent="8UgVAGLM6Ib2Gt2lrsU2-41">
          <mxGeometry x="-0.5983" y="1" relative="1" as="geometry">
            <mxPoint x="51" y="-4" as="offset" />
          </mxGeometry>
        </mxCell>
        <mxCell id="8UgVAGLM6Ib2Gt2lrsU2-44" value="&lt;span data-lucid-type=&quot;application/vnd.lucid.text&quot; data-lucid-content=&quot;{&amp;quot;t&amp;quot;:&amp;quot;submit action&amp;quot;,&amp;quot;m&amp;quot;:[{&amp;quot;s&amp;quot;:0,&amp;quot;n&amp;quot;:&amp;quot;s&amp;quot;,&amp;quot;v&amp;quot;:22.22222222222222,&amp;quot;e&amp;quot;:13},{&amp;quot;s&amp;quot;:0,&amp;quot;n&amp;quot;:&amp;quot;fsp&amp;quot;,&amp;quot;v&amp;quot;:&amp;quot;ss_presetShapeStyle1_textStyle&amp;quot;,&amp;quot;e&amp;quot;:13},{&amp;quot;s&amp;quot;:0,&amp;quot;n&amp;quot;:&amp;quot;fsp2&amp;quot;,&amp;quot;v&amp;quot;:&amp;quot;ss_presetShapeStyle1_textStyle&amp;quot;,&amp;quot;e&amp;quot;:13}]}&quot;&gt;&lt;span style=&quot;color: rgb(0, 0, 0);&quot;&gt;submit action&lt;/span&gt;&lt;/span&gt;" style="rounded=1;whiteSpace=wrap;html=1;absoluteArcSize=1;arcSize=14;strokeWidth=2;fontSize=30;fontStyle=1" vertex="1" parent="1">
          <mxGeometry x="1815" y="1090" width="220" height="70" as="geometry" />
        </mxCell>
        <mxCell id="8UgVAGLM6Ib2Gt2lrsU2-45" style="edgeStyle=orthogonalEdgeStyle;rounded=0;orthogonalLoop=1;jettySize=auto;html=1;entryX=1;entryY=0.5;entryDx=0;entryDy=0;fontSize=23;startSize=8;endSize=8;strokeWidth=8;fillColor=#0050ef;strokeColor=light-dark(#001DBC,#429AFF);fontStyle=0" edge="1" parent="1" target="8UgVAGLM6Ib2Gt2lrsU2-51">
          <mxGeometry relative="1" as="geometry">
            <Array as="points">
              <mxPoint x="2985" y="660" />
            </Array>
            <mxPoint x="2985" y="985" as="sourcePoint" />
          </mxGeometry>
        </mxCell>
        <mxCell id="8UgVAGLM6Ib2Gt2lrsU2-46" value="doGet()" style="edgeLabel;html=1;align=center;verticalAlign=middle;resizable=0;points=[];fontSize=30;fontStyle=1" vertex="1" connectable="0" parent="8UgVAGLM6Ib2Gt2lrsU2-45">
          <mxGeometry x="-0.4041" y="1" relative="1" as="geometry">
            <mxPoint y="-1" as="offset" />
          </mxGeometry>
        </mxCell>
        <mxCell id="8UgVAGLM6Ib2Gt2lrsU2-47" value="2" style="edgeLabel;html=1;align=center;verticalAlign=middle;resizable=0;points=[];fontSize=50;fontStyle=1;fontColor=light-dark(#005700,#3F991B);" vertex="1" connectable="0" parent="8UgVAGLM6Ib2Gt2lrsU2-45">
          <mxGeometry x="-0.7074" y="4" relative="1" as="geometry">
            <mxPoint y="-1" as="offset" />
          </mxGeometry>
        </mxCell>
        <mxCell id="8UgVAGLM6Ib2Gt2lrsU2-49" style="edgeStyle=orthogonalEdgeStyle;rounded=0;orthogonalLoop=1;jettySize=auto;html=1;entryX=0;entryY=0.5;entryDx=0;entryDy=0;fontSize=20;startSize=8;endSize=8;strokeWidth=8;fillColor=#0050ef;strokeColor=light-dark(#001DBC,#429AFF);fontStyle=1" edge="1" parent="1" source="8UgVAGLM6Ib2Gt2lrsU2-50">
          <mxGeometry relative="1" as="geometry">
            <mxPoint x="2760" y="1125" as="targetPoint" />
          </mxGeometry>
        </mxCell>
        <mxCell id="8UgVAGLM6Ib2Gt2lrsU2-50" value="&lt;span data-lucid-type=&quot;application/vnd.lucid.text&quot; data-lucid-content=&quot;{&amp;quot;t&amp;quot;:&amp;quot;filles/blobs&amp;quot;,&amp;quot;m&amp;quot;:[{&amp;quot;s&amp;quot;:0,&amp;quot;n&amp;quot;:&amp;quot;s&amp;quot;,&amp;quot;v&amp;quot;:22.22222222222222,&amp;quot;e&amp;quot;:12},{&amp;quot;s&amp;quot;:0,&amp;quot;n&amp;quot;:&amp;quot;fsp&amp;quot;,&amp;quot;v&amp;quot;:&amp;quot;ss_presetShapeStyle1_textStyle&amp;quot;,&amp;quot;e&amp;quot;:12},{&amp;quot;s&amp;quot;:0,&amp;quot;n&amp;quot;:&amp;quot;fsp2&amp;quot;,&amp;quot;v&amp;quot;:&amp;quot;ss_presetShapeStyle1_textStyle&amp;quot;,&amp;quot;e&amp;quot;:12}]}&quot;&gt;&lt;span style=&quot;color: rgb(0, 0, 0);&quot;&gt;filles/blobs&lt;/span&gt;&lt;/span&gt;" style="shape=parallelogram;html=1;strokeWidth=2;perimeter=parallelogramPerimeter;whiteSpace=wrap;rounded=1;arcSize=12;size=0.23;fontSize=38;fontStyle=1" vertex="1" parent="1">
          <mxGeometry x="2327" y="1075" width="250" height="100" as="geometry" />
        </mxCell>
        <mxCell id="8UgVAGLM6Ib2Gt2lrsU2-51" value="&lt;span data-lucid-type=&quot;application/vnd.lucid.text&quot; data-lucid-content=&quot;{&amp;quot;t&amp;quot;:&amp;quot;fileLinks&amp;quot;,&amp;quot;m&amp;quot;:[{&amp;quot;s&amp;quot;:0,&amp;quot;n&amp;quot;:&amp;quot;s&amp;quot;,&amp;quot;v&amp;quot;:22.22222222222222,&amp;quot;e&amp;quot;:9},{&amp;quot;s&amp;quot;:0,&amp;quot;n&amp;quot;:&amp;quot;fsp&amp;quot;,&amp;quot;v&amp;quot;:&amp;quot;ss_presetShapeStyle1_textStyle&amp;quot;,&amp;quot;e&amp;quot;:9},{&amp;quot;s&amp;quot;:0,&amp;quot;n&amp;quot;:&amp;quot;fsp2&amp;quot;,&amp;quot;v&amp;quot;:&amp;quot;ss_presetShapeStyle1_textStyle&amp;quot;,&amp;quot;e&amp;quot;:9}]}&quot;&gt;&lt;span style=&quot;color: rgb(0, 0, 0);&quot;&gt;fileLinks&lt;/span&gt;&lt;/span&gt;" style="shape=parallelogram;html=1;strokeWidth=2;perimeter=parallelogramPerimeter;whiteSpace=wrap;rounded=1;arcSize=12;size=0.23;fontSize=38;fontStyle=1" vertex="1" parent="1">
          <mxGeometry x="2347" y="610" width="250" height="100" as="geometry" />
        </mxCell>
        <mxCell id="8UgVAGLM6Ib2Gt2lrsU2-52" style="edgeStyle=orthogonalEdgeStyle;rounded=0;orthogonalLoop=1;jettySize=auto;html=1;exitX=0.5;exitY=0;exitDx=0;exitDy=0;entryX=0.5;entryY=1;entryDx=0;entryDy=0;fontSize=20;startSize=8;endSize=8;strokeWidth=8;fillColor=#0050ef;strokeColor=light-dark(#001DBC,#429AFF);fontStyle=1" edge="1" parent="1" source="8UgVAGLM6Ib2Gt2lrsU2-53" target="8UgVAGLM6Ib2Gt2lrsU2-57">
          <mxGeometry relative="1" as="geometry" />
        </mxCell>
        <mxCell id="8UgVAGLM6Ib2Gt2lrsU2-53" value="&lt;span&gt;&lt;font style=&quot;color: light-dark(rgb(237, 237, 237), rgb(255, 255, 255));&quot;&gt;FormData&lt;/font&gt;&lt;/span&gt;" style="shape=parallelogram;html=1;strokeWidth=2;perimeter=parallelogramPerimeter;whiteSpace=wrap;rounded=1;arcSize=12;size=0.23;fontSize=38;fontStyle=1" vertex="1" parent="1">
          <mxGeometry x="2370" y="-130" width="250" height="100" as="geometry" />
        </mxCell>
        <mxCell id="8UgVAGLM6Ib2Gt2lrsU2-56" style="edgeStyle=orthogonalEdgeStyle;rounded=0;orthogonalLoop=1;jettySize=auto;html=1;fontSize=20;startSize=8;endSize=8;strokeWidth=8;fillColor=#0050ef;strokeColor=light-dark(#001DBC,#429AFF);fontStyle=1" edge="1" parent="1" source="8UgVAGLM6Ib2Gt2lrsU2-57">
          <mxGeometry relative="1" as="geometry">
            <Array as="points">
              <mxPoint x="2495" y="-990" />
            </Array>
            <mxPoint x="1540" y="-495" as="targetPoint" />
          </mxGeometry>
        </mxCell>
        <mxCell id="8UgVAGLM6Ib2Gt2lrsU2-57" value="&lt;span data-lucid-type=&quot;application/vnd.lucid.text&quot; data-lucid-content=&quot;{&amp;quot;t&amp;quot;:&amp;quot;Google Spreadsheet&amp;quot;,&amp;quot;m&amp;quot;:[{&amp;quot;s&amp;quot;:0,&amp;quot;n&amp;quot;:&amp;quot;s&amp;quot;,&amp;quot;v&amp;quot;:22.22222222222222,&amp;quot;e&amp;quot;:18},{&amp;quot;s&amp;quot;:0,&amp;quot;n&amp;quot;:&amp;quot;fsp&amp;quot;,&amp;quot;v&amp;quot;:&amp;quot;ss_presetShapeStyle1_textStyle&amp;quot;,&amp;quot;e&amp;quot;:18},{&amp;quot;s&amp;quot;:0,&amp;quot;n&amp;quot;:&amp;quot;fsp2&amp;quot;,&amp;quot;v&amp;quot;:&amp;quot;ss_presetShapeStyle1_textStyle&amp;quot;,&amp;quot;e&amp;quot;:18}]}&quot;&gt;&lt;span style=&quot;color: rgb(0, 0, 0);&quot;&gt;Google Spreadsheet&lt;/span&gt;&lt;/span&gt;" style="rounded=1;whiteSpace=wrap;html=1;absoluteArcSize=1;arcSize=14;strokeWidth=2;fontSize=38;fontStyle=1" vertex="1" parent="1">
          <mxGeometry x="2250" y="-635" width="490" height="280" as="geometry" />
        </mxCell>
        <mxCell id="8UgVAGLM6Ib2Gt2lrsU2-64" style="edgeStyle=orthogonalEdgeStyle;rounded=0;orthogonalLoop=1;jettySize=auto;html=1;entryX=0.427;entryY=0.973;entryDx=0;entryDy=0;entryPerimeter=0;fontSize=20;startSize=8;endSize=8;strokeWidth=8;fillColor=#0050ef;strokeColor=light-dark(#001DBC,#429AFF);fontStyle=1" edge="1" parent="1" source="8UgVAGLM6Ib2Gt2lrsU2-51" target="8UgVAGLM6Ib2Gt2lrsU2-53">
          <mxGeometry relative="1" as="geometry" />
        </mxCell>
        <mxCell id="8UgVAGLM6Ib2Gt2lrsU2-68" value="&lt;span data-lucid-type=&quot;application/vnd.lucid.text&quot; data-lucid-content=&quot;{&amp;quot;t&amp;quot;:&amp;quot;Undergrad &amp;amp;&amp;amp; Freshman&amp;quot;,&amp;quot;m&amp;quot;:[{&amp;quot;s&amp;quot;:0,&amp;quot;n&amp;quot;:&amp;quot;s&amp;quot;,&amp;quot;v&amp;quot;:22.22222222222222,&amp;quot;e&amp;quot;:21},{&amp;quot;s&amp;quot;:0,&amp;quot;n&amp;quot;:&amp;quot;fsp&amp;quot;,&amp;quot;v&amp;quot;:&amp;quot;ss_presetShapeStyle1_textStyle&amp;quot;,&amp;quot;e&amp;quot;:21},{&amp;quot;s&amp;quot;:0,&amp;quot;n&amp;quot;:&amp;quot;fsp2&amp;quot;,&amp;quot;v&amp;quot;:&amp;quot;ss_presetShapeStyle1_textStyle&amp;quot;,&amp;quot;e&amp;quot;:21}]}&quot;&gt;&lt;span style=&quot;color: rgb(0, 0, 0);&quot;&gt;Undergrad &amp;amp;&amp;amp; Freshman&lt;/span&gt;&lt;/span&gt;" style="strokeWidth=2;html=1;shape=mxgraph.flowchart.decision;whiteSpace=wrap;fontSize=20;fontStyle=1" vertex="1" parent="1">
          <mxGeometry x="1323.5" y="670" width="186.5" height="150" as="geometry" />
        </mxCell>
        <mxCell id="8UgVAGLM6Ib2Gt2lrsU2-69" value="&lt;span data-lucid-content=&quot;{&amp;quot;t&amp;quot;:&amp;quot;User Profile\n\nuser&#39;s name\nemail\nuser profile picture&amp;quot;,&amp;quot;m&amp;quot;:[{&amp;quot;s&amp;quot;:0,&amp;quot;n&amp;quot;:&amp;quot;s&amp;quot;,&amp;quot;v&amp;quot;:22.22222222222222,&amp;quot;e&amp;quot;:52},{&amp;quot;s&amp;quot;:0,&amp;quot;n&amp;quot;:&amp;quot;fsp&amp;quot;,&amp;quot;v&amp;quot;:&amp;quot;ss_presetShapeStyle1_textStyle&amp;quot;,&amp;quot;e&amp;quot;:52},{&amp;quot;s&amp;quot;:0,&amp;quot;n&amp;quot;:&amp;quot;fsp2&amp;quot;,&amp;quot;v&amp;quot;:&amp;quot;ss_presetShapeStyle1_textStyle&amp;quot;,&amp;quot;e&amp;quot;:52},{&amp;quot;s&amp;quot;:14,&amp;quot;n&amp;quot;:&amp;quot;t&amp;quot;,&amp;quot;v&amp;quot;:&amp;quot;ul&amp;quot;},{&amp;quot;s&amp;quot;:14,&amp;quot;n&amp;quot;:&amp;quot;l&amp;quot;,&amp;quot;v&amp;quot;:&amp;quot;auto&amp;quot;},{&amp;quot;s&amp;quot;:14,&amp;quot;n&amp;quot;:&amp;quot;il&amp;quot;,&amp;quot;v&amp;quot;:22.22222222222222},{&amp;quot;s&amp;quot;:14,&amp;quot;n&amp;quot;:&amp;quot;fl&amp;quot;,&amp;quot;v&amp;quot;:22.22222222222222},{&amp;quot;s&amp;quot;:14,&amp;quot;n&amp;quot;:&amp;quot;a&amp;quot;,&amp;quot;v&amp;quot;:&amp;quot;left&amp;quot;},{&amp;quot;s&amp;quot;:26,&amp;quot;n&amp;quot;:&amp;quot;t&amp;quot;,&amp;quot;v&amp;quot;:&amp;quot;ul&amp;quot;},{&amp;quot;s&amp;quot;:26,&amp;quot;n&amp;quot;:&amp;quot;l&amp;quot;,&amp;quot;v&amp;quot;:&amp;quot;auto&amp;quot;},{&amp;quot;s&amp;quot;:26,&amp;quot;n&amp;quot;:&amp;quot;il&amp;quot;,&amp;quot;v&amp;quot;:22.22222222222222},{&amp;quot;s&amp;quot;:26,&amp;quot;n&amp;quot;:&amp;quot;fl&amp;quot;,&amp;quot;v&amp;quot;:22.22222222222222},{&amp;quot;s&amp;quot;:26,&amp;quot;n&amp;quot;:&amp;quot;a&amp;quot;,&amp;quot;v&amp;quot;:&amp;quot;left&amp;quot;},{&amp;quot;s&amp;quot;:32,&amp;quot;n&amp;quot;:&amp;quot;t&amp;quot;,&amp;quot;v&amp;quot;:&amp;quot;ul&amp;quot;},{&amp;quot;s&amp;quot;:32,&amp;quot;n&amp;quot;:&amp;quot;l&amp;quot;,&amp;quot;v&amp;quot;:&amp;quot;auto&amp;quot;},{&amp;quot;s&amp;quot;:32,&amp;quot;n&amp;quot;:&amp;quot;il&amp;quot;,&amp;quot;v&amp;quot;:22.22222222222222},{&amp;quot;s&amp;quot;:32,&amp;quot;n&amp;quot;:&amp;quot;fl&amp;quot;,&amp;quot;v&amp;quot;:22.22222222222222},{&amp;quot;s&amp;quot;:32,&amp;quot;n&amp;quot;:&amp;quot;a&amp;quot;,&amp;quot;v&amp;quot;:&amp;quot;left&amp;quot;}]}&quot; data-lucid-type=&quot;application/vnd.lucid.text&quot;&gt;&lt;span style=&quot;color: rgb(0, 0, 0);&quot;&gt;User Profile&lt;br&gt;&lt;/span&gt;&lt;span style=&quot;color: rgb(0, 0, 0);&quot;&gt;&lt;br&gt;&lt;ul&gt;&lt;li style=&quot;text-align: left;&quot;&gt;&lt;span data-lucid-content=&quot;{&amp;quot;t&amp;quot;:&amp;quot;User Profile\n\nuser&#39;s name\nemail\nuser profile picture&amp;quot;,&amp;quot;m&amp;quot;:[{&amp;quot;s&amp;quot;:0,&amp;quot;n&amp;quot;:&amp;quot;s&amp;quot;,&amp;quot;v&amp;quot;:22.22222222222222,&amp;quot;e&amp;quot;:52},{&amp;quot;s&amp;quot;:0,&amp;quot;n&amp;quot;:&amp;quot;fsp&amp;quot;,&amp;quot;v&amp;quot;:&amp;quot;ss_presetShapeStyle1_textStyle&amp;quot;,&amp;quot;e&amp;quot;:52},{&amp;quot;s&amp;quot;:0,&amp;quot;n&amp;quot;:&amp;quot;fsp2&amp;quot;,&amp;quot;v&amp;quot;:&amp;quot;ss_presetShapeStyle1_textStyle&amp;quot;,&amp;quot;e&amp;quot;:52},{&amp;quot;s&amp;quot;:14,&amp;quot;n&amp;quot;:&amp;quot;t&amp;quot;,&amp;quot;v&amp;quot;:&amp;quot;ul&amp;quot;},{&amp;quot;s&amp;quot;:14,&amp;quot;n&amp;quot;:&amp;quot;l&amp;quot;,&amp;quot;v&amp;quot;:&amp;quot;auto&amp;quot;},{&amp;quot;s&amp;quot;:14,&amp;quot;n&amp;quot;:&amp;quot;il&amp;quot;,&amp;quot;v&amp;quot;:22.22222222222222},{&amp;quot;s&amp;quot;:14,&amp;quot;n&amp;quot;:&amp;quot;fl&amp;quot;,&amp;quot;v&amp;quot;:22.22222222222222},{&amp;quot;s&amp;quot;:14,&amp;quot;n&amp;quot;:&amp;quot;a&amp;quot;,&amp;quot;v&amp;quot;:&amp;quot;left&amp;quot;},{&amp;quot;s&amp;quot;:26,&amp;quot;n&amp;quot;:&amp;quot;t&amp;quot;,&amp;quot;v&amp;quot;:&amp;quot;ul&amp;quot;},{&amp;quot;s&amp;quot;:26,&amp;quot;n&amp;quot;:&amp;quot;l&amp;quot;,&amp;quot;v&amp;quot;:&amp;quot;auto&amp;quot;},{&amp;quot;s&amp;quot;:26,&amp;quot;n&amp;quot;:&amp;quot;il&amp;quot;,&amp;quot;v&amp;quot;:22.22222222222222},{&amp;quot;s&amp;quot;:26,&amp;quot;n&amp;quot;:&amp;quot;fl&amp;quot;,&amp;quot;v&amp;quot;:22.22222222222222},{&amp;quot;s&amp;quot;:26,&amp;quot;n&amp;quot;:&amp;quot;a&amp;quot;,&amp;quot;v&amp;quot;:&amp;quot;left&amp;quot;},{&amp;quot;s&amp;quot;:32,&amp;quot;n&amp;quot;:&amp;quot;t&amp;quot;,&amp;quot;v&amp;quot;:&amp;quot;ul&amp;quot;},{&amp;quot;s&amp;quot;:32,&amp;quot;n&amp;quot;:&amp;quot;l&amp;quot;,&amp;quot;v&amp;quot;:&amp;quot;auto&amp;quot;},{&amp;quot;s&amp;quot;:32,&amp;quot;n&amp;quot;:&amp;quot;il&amp;quot;,&amp;quot;v&amp;quot;:22.22222222222222},{&amp;quot;s&amp;quot;:32,&amp;quot;n&amp;quot;:&amp;quot;fl&amp;quot;,&amp;quot;v&amp;quot;:22.22222222222222},{&amp;quot;s&amp;quot;:32,&amp;quot;n&amp;quot;:&amp;quot;a&amp;quot;,&amp;quot;v&amp;quot;:&amp;quot;left&amp;quot;}]}&quot; data-lucid-type=&quot;application/vnd.lucid.text&quot;&gt;&lt;span style=&quot;color: rgb(0, 0, 0);&quot;&gt;user&#39;s name&lt;/span&gt;&lt;/span&gt;&lt;/li&gt;&lt;li style=&quot;text-align: left;&quot;&gt;&lt;span data-lucid-content=&quot;{&amp;quot;t&amp;quot;:&amp;quot;User Profile\n\nuser&#39;s name\nemail\nuser profile picture&amp;quot;,&amp;quot;m&amp;quot;:[{&amp;quot;s&amp;quot;:0,&amp;quot;n&amp;quot;:&amp;quot;s&amp;quot;,&amp;quot;v&amp;quot;:22.22222222222222,&amp;quot;e&amp;quot;:52},{&amp;quot;s&amp;quot;:0,&amp;quot;n&amp;quot;:&amp;quot;fsp&amp;quot;,&amp;quot;v&amp;quot;:&amp;quot;ss_presetShapeStyle1_textStyle&amp;quot;,&amp;quot;e&amp;quot;:52},{&amp;quot;s&amp;quot;:0,&amp;quot;n&amp;quot;:&amp;quot;fsp2&amp;quot;,&amp;quot;v&amp;quot;:&amp;quot;ss_presetShapeStyle1_textStyle&amp;quot;,&amp;quot;e&amp;quot;:52},{&amp;quot;s&amp;quot;:14,&amp;quot;n&amp;quot;:&amp;quot;t&amp;quot;,&amp;quot;v&amp;quot;:&amp;quot;ul&amp;quot;},{&amp;quot;s&amp;quot;:14,&amp;quot;n&amp;quot;:&amp;quot;l&amp;quot;,&amp;quot;v&amp;quot;:&amp;quot;auto&amp;quot;},{&amp;quot;s&amp;quot;:14,&amp;quot;n&amp;quot;:&amp;quot;il&amp;quot;,&amp;quot;v&amp;quot;:22.22222222222222},{&amp;quot;s&amp;quot;:14,&amp;quot;n&amp;quot;:&amp;quot;fl&amp;quot;,&amp;quot;v&amp;quot;:22.22222222222222},{&amp;quot;s&amp;quot;:14,&amp;quot;n&amp;quot;:&amp;quot;a&amp;quot;,&amp;quot;v&amp;quot;:&amp;quot;left&amp;quot;},{&amp;quot;s&amp;quot;:26,&amp;quot;n&amp;quot;:&amp;quot;t&amp;quot;,&amp;quot;v&amp;quot;:&amp;quot;ul&amp;quot;},{&amp;quot;s&amp;quot;:26,&amp;quot;n&amp;quot;:&amp;quot;l&amp;quot;,&amp;quot;v&amp;quot;:&amp;quot;auto&amp;quot;},{&amp;quot;s&amp;quot;:26,&amp;quot;n&amp;quot;:&amp;quot;il&amp;quot;,&amp;quot;v&amp;quot;:22.22222222222222},{&amp;quot;s&amp;quot;:26,&amp;quot;n&amp;quot;:&amp;quot;fl&amp;quot;,&amp;quot;v&amp;quot;:22.22222222222222},{&amp;quot;s&amp;quot;:26,&amp;quot;n&amp;quot;:&amp;quot;a&amp;quot;,&amp;quot;v&amp;quot;:&amp;quot;left&amp;quot;},{&amp;quot;s&amp;quot;:32,&amp;quot;n&amp;quot;:&amp;quot;t&amp;quot;,&amp;quot;v&amp;quot;:&amp;quot;ul&amp;quot;},{&amp;quot;s&amp;quot;:32,&amp;quot;n&amp;quot;:&amp;quot;l&amp;quot;,&amp;quot;v&amp;quot;:&amp;quot;auto&amp;quot;},{&amp;quot;s&amp;quot;:32,&amp;quot;n&amp;quot;:&amp;quot;il&amp;quot;,&amp;quot;v&amp;quot;:22.22222222222222},{&amp;quot;s&amp;quot;:32,&amp;quot;n&amp;quot;:&amp;quot;fl&amp;quot;,&amp;quot;v&amp;quot;:22.22222222222222},{&amp;quot;s&amp;quot;:32,&amp;quot;n&amp;quot;:&amp;quot;a&amp;quot;,&amp;quot;v&amp;quot;:&amp;quot;left&amp;quot;}]}&quot; data-lucid-type=&quot;application/vnd.lucid.text&quot;&gt;&lt;span style=&quot;color: rgb(0, 0, 0);&quot;&gt;email&lt;/span&gt;&lt;/span&gt;&lt;/li&gt;&lt;li style=&quot;text-align: left;&quot;&gt;&lt;span data-lucid-content=&quot;{&amp;quot;t&amp;quot;:&amp;quot;User Profile\n\nuser&#39;s name\nemail\nuser profile picture&amp;quot;,&amp;quot;m&amp;quot;:[{&amp;quot;s&amp;quot;:0,&amp;quot;n&amp;quot;:&amp;quot;s&amp;quot;,&amp;quot;v&amp;quot;:22.22222222222222,&amp;quot;e&amp;quot;:52},{&amp;quot;s&amp;quot;:0,&amp;quot;n&amp;quot;:&amp;quot;fsp&amp;quot;,&amp;quot;v&amp;quot;:&amp;quot;ss_presetShapeStyle1_textStyle&amp;quot;,&amp;quot;e&amp;quot;:52},{&amp;quot;s&amp;quot;:0,&amp;quot;n&amp;quot;:&amp;quot;fsp2&amp;quot;,&amp;quot;v&amp;quot;:&amp;quot;ss_presetShapeStyle1_textStyle&amp;quot;,&amp;quot;e&amp;quot;:52},{&amp;quot;s&amp;quot;:14,&amp;quot;n&amp;quot;:&amp;quot;t&amp;quot;,&amp;quot;v&amp;quot;:&amp;quot;ul&amp;quot;},{&amp;quot;s&amp;quot;:14,&amp;quot;n&amp;quot;:&amp;quot;l&amp;quot;,&amp;quot;v&amp;quot;:&amp;quot;auto&amp;quot;},{&amp;quot;s&amp;quot;:14,&amp;quot;n&amp;quot;:&amp;quot;il&amp;quot;,&amp;quot;v&amp;quot;:22.22222222222222},{&amp;quot;s&amp;quot;:14,&amp;quot;n&amp;quot;:&amp;quot;fl&amp;quot;,&amp;quot;v&amp;quot;:22.22222222222222},{&amp;quot;s&amp;quot;:14,&amp;quot;n&amp;quot;:&amp;quot;a&amp;quot;,&amp;quot;v&amp;quot;:&amp;quot;left&amp;quot;},{&amp;quot;s&amp;quot;:26,&amp;quot;n&amp;quot;:&amp;quot;t&amp;quot;,&amp;quot;v&amp;quot;:&amp;quot;ul&amp;quot;},{&amp;quot;s&amp;quot;:26,&amp;quot;n&amp;quot;:&amp;quot;l&amp;quot;,&amp;quot;v&amp;quot;:&amp;quot;auto&amp;quot;},{&amp;quot;s&amp;quot;:26,&amp;quot;n&amp;quot;:&amp;quot;il&amp;quot;,&amp;quot;v&amp;quot;:22.22222222222222},{&amp;quot;s&amp;quot;:26,&amp;quot;n&amp;quot;:&amp;quot;fl&amp;quot;,&amp;quot;v&amp;quot;:22.22222222222222},{&amp;quot;s&amp;quot;:26,&amp;quot;n&amp;quot;:&amp;quot;a&amp;quot;,&amp;quot;v&amp;quot;:&amp;quot;left&amp;quot;},{&amp;quot;s&amp;quot;:32,&amp;quot;n&amp;quot;:&amp;quot;t&amp;quot;,&amp;quot;v&amp;quot;:&amp;quot;ul&amp;quot;},{&amp;quot;s&amp;quot;:32,&amp;quot;n&amp;quot;:&amp;quot;l&amp;quot;,&amp;quot;v&amp;quot;:&amp;quot;auto&amp;quot;},{&amp;quot;s&amp;quot;:32,&amp;quot;n&amp;quot;:&amp;quot;il&amp;quot;,&amp;quot;v&amp;quot;:22.22222222222222},{&amp;quot;s&amp;quot;:32,&amp;quot;n&amp;quot;:&amp;quot;fl&amp;quot;,&amp;quot;v&amp;quot;:22.22222222222222},{&amp;quot;s&amp;quot;:32,&amp;quot;n&amp;quot;:&amp;quot;a&amp;quot;,&amp;quot;v&amp;quot;:&amp;quot;left&amp;quot;}]}&quot; data-lucid-type=&quot;application/vnd.lucid.text&quot;&gt;&lt;span style=&quot;color: rgb(0, 0, 0);&quot;&gt;user profile picture&lt;/span&gt;&lt;/span&gt;&lt;/li&gt;&lt;/ul&gt;&lt;/span&gt;&lt;/span&gt;" style="rounded=1;whiteSpace=wrap;html=1;absoluteArcSize=1;arcSize=14;strokeWidth=2;fontSize=23;fontStyle=1" vertex="1" parent="1">
          <mxGeometry x="930" y="400" width="337.46" height="270" as="geometry" />
        </mxCell>
        <mxCell id="8UgVAGLM6Ib2Gt2lrsU2-70" style="edgeStyle=orthogonalEdgeStyle;rounded=0;orthogonalLoop=1;jettySize=auto;html=1;entryX=0.017;entryY=0.586;entryDx=0;entryDy=0;entryPerimeter=0;fontSize=20;startSize=8;endSize=8;strokeWidth=8;fillColor=#0050ef;strokeColor=light-dark(#001DBC,#429AFF);fontStyle=1" edge="1" parent="1" source="8UgVAGLM6Ib2Gt2lrsU2-16" target="8UgVAGLM6Ib2Gt2lrsU2-69">
          <mxGeometry relative="1" as="geometry">
            <Array as="points">
              <mxPoint x="615" y="558" />
            </Array>
          </mxGeometry>
        </mxCell>
        <mxCell id="8UgVAGLM6Ib2Gt2lrsU2-73" style="edgeStyle=orthogonalEdgeStyle;rounded=0;orthogonalLoop=1;jettySize=auto;html=1;entryX=0.75;entryY=0;entryDx=0;entryDy=0;fontSize=12;startSize=8;endSize=8;strokeColor=light-dark(#005700,#3F991B);strokeWidth=6;" edge="1" parent="1" source="8UgVAGLM6Ib2Gt2lrsU2-75">
          <mxGeometry relative="1" as="geometry">
            <mxPoint x="3127.5" y="985" as="targetPoint" />
          </mxGeometry>
        </mxCell>
        <mxCell id="8UgVAGLM6Ib2Gt2lrsU2-74" style="edgeStyle=orthogonalEdgeStyle;rounded=0;orthogonalLoop=1;jettySize=auto;html=1;entryX=1;entryY=0.5;entryDx=0;entryDy=0;fontSize=12;startSize=8;endSize=8;strokeColor=light-dark(#005700,#3F991B);strokeWidth=6;" edge="1" parent="1" source="8UgVAGLM6Ib2Gt2lrsU2-75" target="8UgVAGLM6Ib2Gt2lrsU2-57">
          <mxGeometry relative="1" as="geometry" />
        </mxCell>
        <mxCell id="8UgVAGLM6Ib2Gt2lrsU2-75" value="" style="verticalLabelPosition=middle;verticalAlign=middle;html=1;shape=trapezoid;perimeter=trapezoidPerimeter;whiteSpace=wrap;size=0.23;arcSize=10;flipV=1;labelPosition=center;align=center;fontSize=20;fontStyle=1" vertex="1" parent="1">
          <mxGeometry x="2940" y="-260" width="380" height="230" as="geometry" />
        </mxCell>
        <mxCell id="8UgVAGLM6Ib2Gt2lrsU2-76" value="" style="shape=image;verticalLabelPosition=bottom;labelBackgroundColor=default;verticalAlign=top;aspect=fixed;imageAspect=0;editableCssRules=.*;image=data:image/svg+xml,PHN2ZyB4bWxucz0iaHR0cDovL3d3dy53My5vcmcvMjAwMC9zdmciIGZpbGw9Im5vbmUiIHZpZXdCb3g9IjIgMiAyMCAyMCIgaGVpZ2h0PSI2NjYuNjY2NjY2NjY2NjY2NyIgd2lkdGg9IjY2Ni42NjY2NjY2NjY2NjY3Ij4mI3hhOzxwYXRoIGZpbGw9IiMxQzI3NEMiIGQ9Ik0yMiAxMkMyMiAxNy41MjI4IDE3LjUyMjggMjIgMTIgMjJDNi40NzcxNSAyMiAyIDE3LjUyMjggMiAxMkMyIDYuNDc3MTUgNi40NzcxNSAyIDEyIDJDMTcuNTIyOCAyIDIyIDYuNDc3MTUgMjIgMTJaTTE1IDlDMTUgMTAuNjU2OSAxMy42NTY5IDEyIDEyIDEyQzEwLjM0MzEgMTIgOSAxMC42NTY5IDkgOUM5IDcuMzQzMTUgMTAuMzQzMSA2IDEyIDZDMTMuNjU2OSA2IDE1IDcuMzQzMTUgMTUgOVpNMTIgMjAuNUMxMy43ODQgMjAuNSAxNS40Mzk3IDE5Ljk1MDQgMTYuODA2OSAxOS4wMTEyQzE3LjQxMDggMTguNTk2NCAxNy42Njg4IDE3LjgwNjIgMTcuMzE3OCAxNy4xNjMyQzE2LjU5IDE1LjgzMDMgMTUuMDkwMiAxNSAxMS45OTk5IDE1QzguOTA5NjkgMTUgNy40MDk5NyAxNS44MzAyIDYuNjgyMTQgMTcuMTYzMkM2LjMzMTA1IDE3LjgwNjIgNi41ODkxIDE4LjU5NjMgNy4xOTI5NiAxOS4wMTExQzguNTYwMTggMTkuOTUwMyAxMC4yMTU5IDIwLjUgMTIgMjAuNVoiIGNsaXAtcnVsZT0iZXZlbm9kZCIgZmlsbC1ydWxlPSJldmVub2RkIi8+JiN4YTs8L3N2Zz4=;" vertex="1" parent="1">
          <mxGeometry x="-308.5" y="-340" width="197" height="197" as="geometry" />
        </mxCell>
        <mxCell id="8UgVAGLM6Ib2Gt2lrsU2-77" value="" style="shape=image;verticalLabelPosition=bottom;labelBackgroundColor=default;verticalAlign=top;aspect=fixed;imageAspect=0;editableCssRules=.*;image=data:image/svg+xml,PHN2ZyB4bWxucz0iaHR0cDovL3d3dy53My5vcmcvMjAwMC9zdmciIGZpbGw9Im5vbmUiIHZpZXdCb3g9IjQgMyAyNCAyOCIgaGVpZ2h0PSI3MDAiIHdpZHRoPSI2MDAiPiYjeGE7PHBhdGggZmlsbD0iI0U0NEQyNiIgZD0iTTYgMjhMNCAzSDI4TDI2IDI4TDE2IDMxTDYgMjhaIi8+JiN4YTs8cGF0aCBmaWxsPSIjRjE2NTI5IiBkPSJNMjYgNUgxNlYyOS41TDI0IDI3TDI2IDVaIi8+JiN4YTs8cGF0aCBmaWxsPSJ3aGl0ZSIgZD0iTTkuNSAxNy41TDguNSA4SDI0TDIzLjUgMTFIMTEuNUwxMiAxNC41SDIzTDIyIDI0TDE2IDI2TDEwIDI0TDkuNSAxOUgxMi41TDEzIDIxLjVMMTYgMjIuNUwxOSAyMS41TDE5LjUgMTcuNUg5LjVaIi8+JiN4YTs8L3N2Zz4=;flipV=0;flipH=0;fontSize=20;" vertex="1" parent="1">
          <mxGeometry x="-760" y="70.005" width="53.71" height="62.67" as="geometry" />
        </mxCell>
        <mxCell id="8UgVAGLM6Ib2Gt2lrsU2-78" value="" style="shape=image;verticalLabelPosition=bottom;labelBackgroundColor=default;verticalAlign=top;aspect=fixed;imageAspect=0;editableCssRules=.*;image=data:image/svg+xml,PHN2ZyB4bWxucz0iaHR0cDovL3d3dy53My5vcmcvMjAwMC9zdmciIGZpbGw9Im5vbmUiIHZpZXdCb3g9IjQgMyAyNCAyOCIgaGVpZ2h0PSI3MDAiIHdpZHRoPSI2MDAiPiYjeGE7PHBhdGggZmlsbD0iIzExNzJCOCIgZD0iTTYgMjhMNCAzSDI4TDI2IDI4TDE2IDMxTDYgMjhaIi8+JiN4YTs8cGF0aCBmaWxsPSIjMzNBQUREIiBkPSJNMjYgNUgxNlYyOS41TDI0IDI3TDI2IDVaIi8+JiN4YTs8cGF0aCBmaWxsPSJ3aGl0ZSIgZD0iTTE5LjUgMTcuNUg5LjVMOSAxNEwxNyAxMS41SDlMOC41IDguNUgyNEwyMy41IDEyTDE3IDE0LjVIMjNMMjIgMjRMMTYgMjZMMTAgMjRMOS41IDE5SDEyLjVMMTMgMjEuNUwxNiAyMi41TDE5IDIxLjVMMTkuNSAxNy41WiIvPiYjeGE7PC9zdmc+;flipV=0;flipH=0;fontSize=20;" vertex="1" parent="1">
          <mxGeometry x="-692.5" y="70.005" width="53.72" height="62.67" as="geometry" />
        </mxCell>
        <mxCell id="8UgVAGLM6Ib2Gt2lrsU2-79" value="" style="shape=image;verticalLabelPosition=bottom;labelBackgroundColor=default;verticalAlign=top;aspect=fixed;imageAspect=0;editableCssRules=.*;image=data:image/svg+xml,PHN2ZyB4bWxucz0iaHR0cDovL3d3dy53My5vcmcvMjAwMC9zdmciIGZpbGw9Im5vbmUiIHZpZXdCb3g9IjQgMyAyNCAyOCIgaGVpZ2h0PSI3MDAiIHdpZHRoPSI2MDAiPiYjeGE7PHBhdGggZmlsbD0iIzExNzJCOCIgZD0iTTYgMjhMNCAzSDI4TDI2IDI4TDE2IDMxTDYgMjhaIi8+JiN4YTs8cGF0aCBmaWxsPSIjMzNBQUREIiBkPSJNMjYgNUgxNlYyOS41TDI0IDI3TDI2IDVaIi8+JiN4YTs8cGF0aCBmaWxsPSJ3aGl0ZSIgZD0iTTE5LjUgMTcuNUg5LjVMOSAxNEwxNyAxMS41SDlMOC41IDguNUgyNEwyMy41IDEyTDE3IDE0LjVIMjNMMjIgMjRMMTYgMjZMMTAgMjRMOS41IDE5SDEyLjVMMTMgMjEuNUwxNiAyMi41TDE5IDIxLjVMMTkuNSAxNy41WiIvPiYjeGE7PC9zdmc+;flipV=0;flipH=0;fontSize=20;" vertex="1" parent="1">
          <mxGeometry x="117.5" y="987.3250000000002" width="53.72" height="62.67" as="geometry" />
        </mxCell>
        <mxCell id="8UgVAGLM6Ib2Gt2lrsU2-80" value="" style="shape=image;verticalLabelPosition=bottom;labelBackgroundColor=default;verticalAlign=top;aspect=fixed;imageAspect=0;editableCssRules=.*;image=data:image/svg+xml,PHN2ZyB4bWxucz0iaHR0cDovL3d3dy53My5vcmcvMjAwMC9zdmciIGZpbGw9Im5vbmUiIHZpZXdCb3g9IjQgMyAyNCAyOCIgaGVpZ2h0PSI3MDAiIHdpZHRoPSI2MDAiPiYjeGE7PHBhdGggZmlsbD0iI0U0NEQyNiIgZD0iTTYgMjhMNCAzSDI4TDI2IDI4TDE2IDMxTDYgMjhaIi8+JiN4YTs8cGF0aCBmaWxsPSIjRjE2NTI5IiBkPSJNMjYgNUgxNlYyOS41TDI0IDI3TDI2IDVaIi8+JiN4YTs8cGF0aCBmaWxsPSJ3aGl0ZSIgZD0iTTkuNSAxNy41TDguNSA4SDI0TDIzLjUgMTFIMTEuNUwxMiAxNC41SDIzTDIyIDI0TDE2IDI2TDEwIDI0TDkuNSAxOUgxMi41TDEzIDIxLjVMMTYgMjIuNUwxOSAyMS41TDE5LjUgMTcuNUg5LjVaIi8+JiN4YTs8L3N2Zz4=;flipV=0;flipH=0;fontSize=20;" vertex="1" parent="1">
          <mxGeometry x="50" y="987.3250000000002" width="53.71" height="62.67" as="geometry" />
        </mxCell>
        <mxCell id="8UgVAGLM6Ib2Gt2lrsU2-81" value="" style="shape=image;verticalLabelPosition=bottom;labelBackgroundColor=default;verticalAlign=top;aspect=fixed;imageAspect=0;editableCssRules=.*;image=data:image/svg+xml,PHN2ZyB4bWxucz0iaHR0cDovL3d3dy53My5vcmcvMjAwMC9zdmciIHZpZXdCb3g9IjAgMCA1MTIgNTEyIiByb2xlPSJpbWciIGFyaWEtbGFiZWw9IkphdmFTY3JpcHQiIHdpZHRoPSI1MTIiIGhlaWdodD0iNTEyIj48cmVjdCBmaWxsPSIjZjdkZjFlIiByeD0iMTUlIiBoZWlnaHQ9IjUxMiIgd2lkdGg9IjUxMiIvPjxwYXRoIGQ9Ik0zMjQgMzcwYzEwIDE3IDI0IDI5IDQ3IDI5YzIwIDAgMzMtMTAgMzMgLTI0YzAtMTYgLTEzIC0yMiAtMzUgLTMybC0xMi01Yy0zNS0xNSAtNTggLTMzIC01OCAtNzJjMC0zNiAyNyAtNjQgNzAgLTY0YzMxIDAgNTMgMTEgNjggMzlsLTM3IDI0Yy04LTE1IC0xNyAtMjEgLTMxIC0yMWMtMTQgMC0yMyA5IC0yMyAyMWMwIDE0IDkgMjAgMzAgMjlsMTIgNWM0MSAxOCA2NCAzNSA2NCA3NmMwIDQzLTM0IDY3IC04MCA2N2MtNDUgMC03NCAtMjEgLTg4IC00OXptLTE3MCA0YzggMTMgMTQgMjUgMzEgMjVjMTYgMCAyNi02IDI2IC0zMFYyMDNoNDh2MTY0YzAgNTAtMjkgNzIgLTcyIDcyYy0zOSAwLTYxIC0yMCAtNzIgLTQ0eiIvPjwvc3ZnPg==;flipV=0;flipH=0;fontSize=20;" vertex="1" parent="1">
          <mxGeometry x="187.5" y="992.3250000000002" width="52.67" height="52.67" as="geometry" />
        </mxCell>
        <mxCell id="8UgVAGLM6Ib2Gt2lrsU2-82" value="" style="html=1;overflow=block;blockSpacing=1;whiteSpace=wrap;shape=image;fontSize=20;spacing=0;strokeColor=none;rounded=1;absoluteArcSize=1;arcSize=9;strokeWidth=0;image=https://images.lucid.app/images/ef667a49-4c37-468c-83e2-b0a6cc2de203/content;imageAspect=0;lucidId=pIxY98gicGCk;flipV=0;flipH=0;" vertex="1" parent="1">
          <mxGeometry x="250" y="987.9900000000001" width="53.83" height="61.34" as="geometry" />
        </mxCell>
        <mxCell id="8UgVAGLM6Ib2Gt2lrsU2-83" value="" style="html=1;overflow=block;blockSpacing=1;whiteSpace=wrap;shape=image;fontSize=20;spacing=0;strokeColor=none;rounded=1;absoluteArcSize=1;arcSize=9;strokeWidth=0;image=https://images.lucid.app/images/9e1af045-fd4b-4da5-ac98-e8dabb70b498/content;imageAspect=0;lucidId=pIxY8zV6ijY.;flipV=0;flipH=0;" vertex="1" parent="1">
          <mxGeometry x="70" y="1070.0000000000002" width="68" height="61.34" as="geometry" />
        </mxCell>
        <mxCell id="8UgVAGLM6Ib2Gt2lrsU2-84" value="" style="shape=image;verticalLabelPosition=bottom;labelBackgroundColor=default;verticalAlign=top;aspect=fixed;imageAspect=0;editableCssRules=.*;image=data:image/svg+xml,PHN2ZyB4bWxucz0iaHR0cDovL3d3dy53My5vcmcvMjAwMC9zdmciIHZpZXdCb3g9IjAuMDM5MDAwMDM0MzMyMjc1MzkgMCA1NS45MjA5OTc2MTk2Mjg5MDYgNjMuOTk1MDAyNzQ2NTgyMDMiIGhlaWdodD0iNzk5LjkzNzUzNDMzMjI3NTQiIHdpZHRoPSI2OTkuMDEyNDcwMjQ1MzYxMyI+PHBhdGggZmlsbD0iIzQ1QjA1OCIgY2xpcC1ydWxlPSJldmVub2RkIiBmaWxsLXJ1bGU9ImV2ZW5vZGQiIGQ9Ik01LjExMi4wMDZjLTIuODAyIDAtNS4wNzMgMi4yNzMtNS4wNzMgNS4wNzR2NTMuODQxYzAgMi44MDMgMi4yNzEgNS4wNzQgNS4wNzMgNS4wNzRoNDUuNzc0YzIuODAxIDAgNS4wNzQtMi4yNzEgNS4wNzQtNS4wNzR2LTM4LjYwNWwtMTguOTAyLTIwLjMxaC0zMS45NDZ6Ii8+PHBhdGggZmlsbD0iI2ZmZmZmZiIgZD0iTTE5LjQyOSA1My45MzhjLS4yMTYgMC0uNDE1LS4wOS0uNTQtLjI3bC0zLjcyOC00Ljk3LTMuNzQ1IDQuOTdjLS4xMjYuMTgtLjMyNC4yNy0uNTQuMjctLjM5NiAwLS43Mi0uMzA2LS43Mi0uNzIgMC0uMTQ0LjAzNS0uMzA2LjE0NC0uNDMybDMuODktNS4xMzEtMy42MTktNC44MjZjLS4wOS0uMTI2LS4xNDUtLjI3LS4xNDUtLjQxNCAwLS4zNDIuMjg4LS43Mi43MjEtLjcyLjIxNiAwIC40MzIuMTA4LjU3Ni4yODhsMy40MzggNC42MjggMy40MzgtNC42NDZjLjEyNy0uMTguMzI0LS4yNy41NDEtLjI3LjM3OCAwIC43MzguMzA2LjczOC43MiAwIC4xNDQtLjAzNi4yODgtLjEyNy40MTRsLTMuNjE5IDQuODA4IDMuODkxIDUuMTQ5Yy4wOS4xMjYuMTI1LjI3LjEyNS40MTQgMCAuMzk2LS4zMjQuNzM4LS43MTkuNzM4em05Ljk4OS0uMTI2aC01LjQ1NWMtLjU5NSAwLTEuMDgxLS40ODYtMS4wODEtMS4wOHYtMTAuMzE3YzAtLjM5Ni4zMjQtLjcyLjc3NC0uNzIuMzk2IDAgLjcyMS4zMjQuNzIxLjcydjEwLjA2NWg1LjA0MWMuMzU5IDAgLjY0OC4yODguNjQ4LjY0OCAwIC4zOTYtLjI4OS42ODQtLjY0OC42ODR6bTYuOTgyLjIxNmMtMS43ODIgMC0zLjE4OC0uNTk0LTQuMjEzLTEuNDk1LS4xNjItLjE0NC0uMjM0LS4zNDItLjIzNC0uNTQgMC0uMzYuMjctLjc1Ni43MDItLjc1Ni4xNDQgMCAuMzA2LjAzNi40MzMuMTQ0LjgyOC43MzggMS45OCAxLjMxNCAzLjM2NyAxLjMxNCAyLjE0MyAwIDIuODI2LTEuMTUyIDIuODI2LTIuMDcxIDAtMy4wOTctNy4xMTEtMS4zODYtNy4xMTEtNS42NzIgMC0xLjk4IDEuNzY0LTMuMzMxIDQuMTIzLTMuMzMxIDEuNTQ4IDAgMi44ODEuNDY4IDMuODUzIDEuMjc4LjE2Mi4xNDQuMjUzLjM0Mi4yNTMuNTQgMCAuMzYtLjMwNy43Mi0uNzAzLjcyLS4xNDUgMC0uMzA3LS4wNTQtLjQzMi0uMTYyLS44ODMtLjcyLTEuOTgtMS4wNDQtMy4wNzktMS4wNDQtMS40NCAwLTIuNDY3Ljc3NC0yLjQ2NyAxLjkwOSAwIDIuNzAxIDcuMTEyIDEuMTUyIDcuMTEyIDUuNjM2IDAgMS43NDgtMS4xODggMy41My00LjQzIDMuNTN6Ii8+PHBhdGggZmlsbD0iIzM0OUM0MiIgY2xpcC1ydWxlPSJldmVub2RkIiBmaWxsLXJ1bGU9ImV2ZW5vZGQiIGQ9Ik01NS45NTMgMjAuMzUydjFoLTEyLjgwMXMtNi4zMTItMS4yNi02LjEyNy02LjcwN2MwIDAgLjIwNyA1LjcwNyA2LjAwMiA1LjcwN2gxMi45MjZ6Ii8+PHBhdGggZmlsbD0iI2ZmZmZmZiIgY2xpcC1ydWxlPSJldmVub2RkIiBmaWxsLXJ1bGU9ImV2ZW5vZGQiIG9wYWNpdHk9Ii41IiBkPSJNMzcuMDQ5IDB2MTQuNTYxYzAgMS42NTYgMS4xMDQgNS43OTEgNi4xMDQgNS43OTFoMTIuODAxbC0xOC45MDUtMjAuMzUyeiIvPjwvc3ZnPg==;flipV=0;flipH=0;fontSize=20;" vertex="1" parent="1">
          <mxGeometry x="3008.2200000000003" y="-230.0000000000001" width="52.43" height="60" as="geometry" />
        </mxCell>
        <mxCell id="8UgVAGLM6Ib2Gt2lrsU2-85" value="" style="html=1;overflow=block;blockSpacing=1;whiteSpace=wrap;shape=image;fontSize=20;spacing=0;strokeColor=none;rounded=1;absoluteArcSize=1;arcSize=9;strokeWidth=0;image=https://images.lucid.app/images/ce96e295-174c-4b5b-94fa-936bf98bc524/content;imageAspect=0;lucidId=pIxY0kUohqhe;flipV=0;flipH=0;" vertex="1" parent="1">
          <mxGeometry x="3078.2200000000003" y="-230.0000000000001" width="60" height="60" as="geometry" />
        </mxCell>
        <mxCell id="8UgVAGLM6Ib2Gt2lrsU2-86" value="" style="html=1;overflow=block;blockSpacing=1;whiteSpace=wrap;shape=image;fontSize=20;spacing=0;strokeColor=none;rounded=1;absoluteArcSize=1;arcSize=9;strokeWidth=0;image=https://images.lucid.app/images/c3f4120e-3691-47af-8682-d9e03e8d1b1e/content;imageAspect=0;lucidId=pIxYE3Ukwy7l;flipV=0;flipH=0;" vertex="1" parent="1">
          <mxGeometry x="150" y="1074.9999999999998" width="60" height="60" as="geometry" />
        </mxCell>
        <mxCell id="8UgVAGLM6Ib2Gt2lrsU2-87" value="&lt;span style=&quot;font-size: 38px;&quot;&gt;&lt;font style=&quot;color: light-dark(rgb(237, 237, 237), rgb(255, 251, 247));&quot;&gt;Database&lt;/font&gt;&lt;/span&gt;" style="strokeWidth=2;html=1;shape=mxgraph.flowchart.database;whiteSpace=wrap;" vertex="1" parent="1">
          <mxGeometry x="2760.65" y="979.9999999999999" width="300" height="250" as="geometry" />
        </mxCell>
        <mxCell id="8UgVAGLM6Ib2Gt2lrsU2-138" style="edgeStyle=orthogonalEdgeStyle;rounded=0;orthogonalLoop=1;jettySize=auto;html=1;entryX=0.5;entryY=0;entryDx=0;entryDy=0;" edge="1" parent="1" source="8UgVAGLM6Ib2Gt2lrsU2-88" target="8UgVAGLM6Ib2Gt2lrsU2-117">
          <mxGeometry relative="1" as="geometry" />
        </mxCell>
        <mxCell id="8UgVAGLM6Ib2Gt2lrsU2-88" value="&lt;span&gt;&lt;font style=&quot;font-size: 43px;&quot;&gt;FORM UI&lt;/font&gt;&lt;/span&gt;&lt;div&gt;&lt;span&gt;&lt;font style=&quot;font-size: 43px;&quot;&gt;&lt;br&gt;&lt;/font&gt;&lt;/span&gt;&lt;/div&gt;&lt;div&gt;&lt;span&gt;&lt;font style=&quot;font-size: 43px;&quot;&gt;&lt;br&gt;&lt;/font&gt;&lt;/span&gt;&lt;/div&gt;&lt;div&gt;&lt;span&gt;&lt;font style=&quot;font-size: 43px;&quot;&gt;&lt;br&gt;&lt;/font&gt;&lt;/span&gt;&lt;/div&gt;&lt;div&gt;&lt;span&gt;&lt;font style=&quot;font-size: 43px;&quot;&gt;&lt;br&gt;&lt;/font&gt;&lt;/span&gt;&lt;/div&gt;&lt;div&gt;&lt;span&gt;&lt;font style=&quot;font-size: 43px;&quot;&gt;&lt;br&gt;&lt;/font&gt;&lt;/span&gt;&lt;/div&gt;&lt;div&gt;&lt;span&gt;&lt;font style=&quot;font-size: 43px;&quot;&gt;&lt;br&gt;&lt;/font&gt;&lt;/span&gt;&lt;/div&gt;&lt;div&gt;&lt;span&gt;&lt;font style=&quot;font-size: 43px;&quot;&gt;&lt;br&gt;&lt;/font&gt;&lt;/span&gt;&lt;/div&gt;&lt;div&gt;&lt;span&gt;&lt;font style=&quot;font-size: 43px;&quot;&gt;&lt;br&gt;&lt;/font&gt;&lt;/span&gt;&lt;/div&gt;&lt;div&gt;&lt;span&gt;&lt;font style=&quot;font-size: 43px;&quot;&gt;&lt;br&gt;&lt;/font&gt;&lt;/span&gt;&lt;/div&gt;&lt;div&gt;&lt;span&gt;&lt;font style=&quot;font-size: 43px;&quot;&gt;&lt;br&gt;&lt;/font&gt;&lt;/span&gt;&lt;/div&gt;&lt;div&gt;&lt;span&gt;&lt;font style=&quot;font-size: 43px;&quot;&gt;&lt;br&gt;&lt;/font&gt;&lt;/span&gt;&lt;/div&gt;&lt;div&gt;&lt;span&gt;&lt;font style=&quot;font-size: 43px;&quot;&gt;&lt;br&gt;&lt;/font&gt;&lt;/span&gt;&lt;/div&gt;&lt;div&gt;&lt;span&gt;&lt;font style=&quot;font-size: 43px;&quot;&gt;&lt;br&gt;&lt;/font&gt;&lt;/span&gt;&lt;/div&gt;&lt;div&gt;&lt;span&gt;&lt;font style=&quot;font-size: 43px;&quot;&gt;&lt;br&gt;&lt;/font&gt;&lt;/span&gt;&lt;/div&gt;&lt;div&gt;&lt;span&gt;&lt;font style=&quot;font-size: 43px;&quot;&gt;&lt;br&gt;&lt;/font&gt;&lt;/span&gt;&lt;/div&gt;&lt;div&gt;&lt;span&gt;&lt;font style=&quot;font-size: 43px;&quot;&gt;&lt;br&gt;&lt;/font&gt;&lt;/span&gt;&lt;/div&gt;&lt;div&gt;&lt;span&gt;&lt;font style=&quot;font-size: 43px;&quot;&gt;&lt;br&gt;&lt;/font&gt;&lt;/span&gt;&lt;/div&gt;&lt;div&gt;&lt;br&gt;&lt;/div&gt;" style="rounded=1;whiteSpace=wrap;html=1;absoluteArcSize=1;arcSize=14;strokeWidth=2;fontSize=20;fontStyle=1" vertex="1" parent="1">
          <mxGeometry x="-55" y="1600" width="1210" height="970" as="geometry" />
        </mxCell>
        <mxCell id="8UgVAGLM6Ib2Gt2lrsU2-110" value="&lt;span data-lucid-type=&quot;application/vnd.lucid.text&quot; data-lucid-content=&quot;{&amp;quot;t&amp;quot;:&amp;quot;Step by Step Sections/Nav&amp;quot;,&amp;quot;m&amp;quot;:[{&amp;quot;s&amp;quot;:0,&amp;quot;n&amp;quot;:&amp;quot;s&amp;quot;,&amp;quot;v&amp;quot;:22.22222222222222,&amp;quot;e&amp;quot;:25},{&amp;quot;s&amp;quot;:0,&amp;quot;n&amp;quot;:&amp;quot;fsp&amp;quot;,&amp;quot;v&amp;quot;:&amp;quot;ss_presetShapeStyle1_textStyle&amp;quot;,&amp;quot;e&amp;quot;:25},{&amp;quot;s&amp;quot;:0,&amp;quot;n&amp;quot;:&amp;quot;fsp2&amp;quot;,&amp;quot;v&amp;quot;:&amp;quot;ss_presetShapeStyle1_textStyle&amp;quot;,&amp;quot;e&amp;quot;:25}]}&quot;&gt;&lt;span style=&quot;color: rgb(0, 0, 0);&quot;&gt;Nav Bar&lt;/span&gt;&lt;/span&gt;" style="rounded=1;whiteSpace=wrap;html=1;absoluteArcSize=1;arcSize=14;strokeWidth=2;fontSize=39;fontStyle=1" vertex="1" parent="1">
          <mxGeometry x="932.54" y="290" width="167.46" height="100" as="geometry" />
        </mxCell>
        <mxCell id="8UgVAGLM6Ib2Gt2lrsU2-111" value="&lt;span data-lucid-type=&quot;application/vnd.lucid.text&quot; data-lucid-content=&quot;{&amp;quot;t&amp;quot;:&amp;quot;Step by Step Sections/Nav&amp;quot;,&amp;quot;m&amp;quot;:[{&amp;quot;s&amp;quot;:0,&amp;quot;n&amp;quot;:&amp;quot;s&amp;quot;,&amp;quot;v&amp;quot;:22.22222222222222,&amp;quot;e&amp;quot;:25},{&amp;quot;s&amp;quot;:0,&amp;quot;n&amp;quot;:&amp;quot;fsp&amp;quot;,&amp;quot;v&amp;quot;:&amp;quot;ss_presetShapeStyle1_textStyle&amp;quot;,&amp;quot;e&amp;quot;:25},{&amp;quot;s&amp;quot;:0,&amp;quot;n&amp;quot;:&amp;quot;fsp2&amp;quot;,&amp;quot;v&amp;quot;:&amp;quot;ss_presetShapeStyle1_textStyle&amp;quot;,&amp;quot;e&amp;quot;:25}]}&quot;&gt;&lt;span style=&quot;color: rgb(0, 0, 0);&quot;&gt;Nav Bar&lt;/span&gt;&lt;/span&gt;" style="rounded=1;whiteSpace=wrap;html=1;absoluteArcSize=1;arcSize=14;strokeWidth=2;fontSize=39;fontStyle=1" vertex="1" parent="1">
          <mxGeometry x="1100" y="290" width="167.46" height="100" as="geometry" />
        </mxCell>
        <mxCell id="8UgVAGLM6Ib2Gt2lrsU2-112" value="&lt;span data-lucid-content=&quot;{&amp;quot;t&amp;quot;:&amp;quot;User Profile\n\nuser&#39;s name\nemail\nuser profile picture&amp;quot;,&amp;quot;m&amp;quot;:[{&amp;quot;s&amp;quot;:0,&amp;quot;n&amp;quot;:&amp;quot;s&amp;quot;,&amp;quot;v&amp;quot;:22.22222222222222,&amp;quot;e&amp;quot;:52},{&amp;quot;s&amp;quot;:0,&amp;quot;n&amp;quot;:&amp;quot;fsp&amp;quot;,&amp;quot;v&amp;quot;:&amp;quot;ss_presetShapeStyle1_textStyle&amp;quot;,&amp;quot;e&amp;quot;:52},{&amp;quot;s&amp;quot;:0,&amp;quot;n&amp;quot;:&amp;quot;fsp2&amp;quot;,&amp;quot;v&amp;quot;:&amp;quot;ss_presetShapeStyle1_textStyle&amp;quot;,&amp;quot;e&amp;quot;:52},{&amp;quot;s&amp;quot;:14,&amp;quot;n&amp;quot;:&amp;quot;t&amp;quot;,&amp;quot;v&amp;quot;:&amp;quot;ul&amp;quot;},{&amp;quot;s&amp;quot;:14,&amp;quot;n&amp;quot;:&amp;quot;l&amp;quot;,&amp;quot;v&amp;quot;:&amp;quot;auto&amp;quot;},{&amp;quot;s&amp;quot;:14,&amp;quot;n&amp;quot;:&amp;quot;il&amp;quot;,&amp;quot;v&amp;quot;:22.22222222222222},{&amp;quot;s&amp;quot;:14,&amp;quot;n&amp;quot;:&amp;quot;fl&amp;quot;,&amp;quot;v&amp;quot;:22.22222222222222},{&amp;quot;s&amp;quot;:14,&amp;quot;n&amp;quot;:&amp;quot;a&amp;quot;,&amp;quot;v&amp;quot;:&amp;quot;left&amp;quot;},{&amp;quot;s&amp;quot;:26,&amp;quot;n&amp;quot;:&amp;quot;t&amp;quot;,&amp;quot;v&amp;quot;:&amp;quot;ul&amp;quot;},{&amp;quot;s&amp;quot;:26,&amp;quot;n&amp;quot;:&amp;quot;l&amp;quot;,&amp;quot;v&amp;quot;:&amp;quot;auto&amp;quot;},{&amp;quot;s&amp;quot;:26,&amp;quot;n&amp;quot;:&amp;quot;il&amp;quot;,&amp;quot;v&amp;quot;:22.22222222222222},{&amp;quot;s&amp;quot;:26,&amp;quot;n&amp;quot;:&amp;quot;fl&amp;quot;,&amp;quot;v&amp;quot;:22.22222222222222},{&amp;quot;s&amp;quot;:26,&amp;quot;n&amp;quot;:&amp;quot;a&amp;quot;,&amp;quot;v&amp;quot;:&amp;quot;left&amp;quot;},{&amp;quot;s&amp;quot;:32,&amp;quot;n&amp;quot;:&amp;quot;t&amp;quot;,&amp;quot;v&amp;quot;:&amp;quot;ul&amp;quot;},{&amp;quot;s&amp;quot;:32,&amp;quot;n&amp;quot;:&amp;quot;l&amp;quot;,&amp;quot;v&amp;quot;:&amp;quot;auto&amp;quot;},{&amp;quot;s&amp;quot;:32,&amp;quot;n&amp;quot;:&amp;quot;il&amp;quot;,&amp;quot;v&amp;quot;:22.22222222222222},{&amp;quot;s&amp;quot;:32,&amp;quot;n&amp;quot;:&amp;quot;fl&amp;quot;,&amp;quot;v&amp;quot;:22.22222222222222},{&amp;quot;s&amp;quot;:32,&amp;quot;n&amp;quot;:&amp;quot;a&amp;quot;,&amp;quot;v&amp;quot;:&amp;quot;left&amp;quot;}]}&quot; data-lucid-type=&quot;application/vnd.lucid.text&quot;&gt;&lt;span style=&quot;color: rgb(0, 0, 0);&quot;&gt;User Profile&lt;br&gt;&lt;/span&gt;&lt;span style=&quot;color: rgb(0, 0, 0);&quot;&gt;&lt;br&gt;&lt;ul&gt;&lt;li style=&quot;text-align: left;&quot;&gt;&lt;span data-lucid-content=&quot;{&amp;quot;t&amp;quot;:&amp;quot;User Profile\n\nuser&#39;s name\nemail\nuser profile picture&amp;quot;,&amp;quot;m&amp;quot;:[{&amp;quot;s&amp;quot;:0,&amp;quot;n&amp;quot;:&amp;quot;s&amp;quot;,&amp;quot;v&amp;quot;:22.22222222222222,&amp;quot;e&amp;quot;:52},{&amp;quot;s&amp;quot;:0,&amp;quot;n&amp;quot;:&amp;quot;fsp&amp;quot;,&amp;quot;v&amp;quot;:&amp;quot;ss_presetShapeStyle1_textStyle&amp;quot;,&amp;quot;e&amp;quot;:52},{&amp;quot;s&amp;quot;:0,&amp;quot;n&amp;quot;:&amp;quot;fsp2&amp;quot;,&amp;quot;v&amp;quot;:&amp;quot;ss_presetShapeStyle1_textStyle&amp;quot;,&amp;quot;e&amp;quot;:52},{&amp;quot;s&amp;quot;:14,&amp;quot;n&amp;quot;:&amp;quot;t&amp;quot;,&amp;quot;v&amp;quot;:&amp;quot;ul&amp;quot;},{&amp;quot;s&amp;quot;:14,&amp;quot;n&amp;quot;:&amp;quot;l&amp;quot;,&amp;quot;v&amp;quot;:&amp;quot;auto&amp;quot;},{&amp;quot;s&amp;quot;:14,&amp;quot;n&amp;quot;:&amp;quot;il&amp;quot;,&amp;quot;v&amp;quot;:22.22222222222222},{&amp;quot;s&amp;quot;:14,&amp;quot;n&amp;quot;:&amp;quot;fl&amp;quot;,&amp;quot;v&amp;quot;:22.22222222222222},{&amp;quot;s&amp;quot;:14,&amp;quot;n&amp;quot;:&amp;quot;a&amp;quot;,&amp;quot;v&amp;quot;:&amp;quot;left&amp;quot;},{&amp;quot;s&amp;quot;:26,&amp;quot;n&amp;quot;:&amp;quot;t&amp;quot;,&amp;quot;v&amp;quot;:&amp;quot;ul&amp;quot;},{&amp;quot;s&amp;quot;:26,&amp;quot;n&amp;quot;:&amp;quot;l&amp;quot;,&amp;quot;v&amp;quot;:&amp;quot;auto&amp;quot;},{&amp;quot;s&amp;quot;:26,&amp;quot;n&amp;quot;:&amp;quot;il&amp;quot;,&amp;quot;v&amp;quot;:22.22222222222222},{&amp;quot;s&amp;quot;:26,&amp;quot;n&amp;quot;:&amp;quot;fl&amp;quot;,&amp;quot;v&amp;quot;:22.22222222222222},{&amp;quot;s&amp;quot;:26,&amp;quot;n&amp;quot;:&amp;quot;a&amp;quot;,&amp;quot;v&amp;quot;:&amp;quot;left&amp;quot;},{&amp;quot;s&amp;quot;:32,&amp;quot;n&amp;quot;:&amp;quot;t&amp;quot;,&amp;quot;v&amp;quot;:&amp;quot;ul&amp;quot;},{&amp;quot;s&amp;quot;:32,&amp;quot;n&amp;quot;:&amp;quot;l&amp;quot;,&amp;quot;v&amp;quot;:&amp;quot;auto&amp;quot;},{&amp;quot;s&amp;quot;:32,&amp;quot;n&amp;quot;:&amp;quot;il&amp;quot;,&amp;quot;v&amp;quot;:22.22222222222222},{&amp;quot;s&amp;quot;:32,&amp;quot;n&amp;quot;:&amp;quot;fl&amp;quot;,&amp;quot;v&amp;quot;:22.22222222222222},{&amp;quot;s&amp;quot;:32,&amp;quot;n&amp;quot;:&amp;quot;a&amp;quot;,&amp;quot;v&amp;quot;:&amp;quot;left&amp;quot;}]}&quot; data-lucid-type=&quot;application/vnd.lucid.text&quot;&gt;&lt;span style=&quot;color: rgb(0, 0, 0);&quot;&gt;user&#39;s name&lt;/span&gt;&lt;/span&gt;&lt;/li&gt;&lt;li style=&quot;text-align: left;&quot;&gt;&lt;span data-lucid-content=&quot;{&amp;quot;t&amp;quot;:&amp;quot;User Profile\n\nuser&#39;s name\nemail\nuser profile picture&amp;quot;,&amp;quot;m&amp;quot;:[{&amp;quot;s&amp;quot;:0,&amp;quot;n&amp;quot;:&amp;quot;s&amp;quot;,&amp;quot;v&amp;quot;:22.22222222222222,&amp;quot;e&amp;quot;:52},{&amp;quot;s&amp;quot;:0,&amp;quot;n&amp;quot;:&amp;quot;fsp&amp;quot;,&amp;quot;v&amp;quot;:&amp;quot;ss_presetShapeStyle1_textStyle&amp;quot;,&amp;quot;e&amp;quot;:52},{&amp;quot;s&amp;quot;:0,&amp;quot;n&amp;quot;:&amp;quot;fsp2&amp;quot;,&amp;quot;v&amp;quot;:&amp;quot;ss_presetShapeStyle1_textStyle&amp;quot;,&amp;quot;e&amp;quot;:52},{&amp;quot;s&amp;quot;:14,&amp;quot;n&amp;quot;:&amp;quot;t&amp;quot;,&amp;quot;v&amp;quot;:&amp;quot;ul&amp;quot;},{&amp;quot;s&amp;quot;:14,&amp;quot;n&amp;quot;:&amp;quot;l&amp;quot;,&amp;quot;v&amp;quot;:&amp;quot;auto&amp;quot;},{&amp;quot;s&amp;quot;:14,&amp;quot;n&amp;quot;:&amp;quot;il&amp;quot;,&amp;quot;v&amp;quot;:22.22222222222222},{&amp;quot;s&amp;quot;:14,&amp;quot;n&amp;quot;:&amp;quot;fl&amp;quot;,&amp;quot;v&amp;quot;:22.22222222222222},{&amp;quot;s&amp;quot;:14,&amp;quot;n&amp;quot;:&amp;quot;a&amp;quot;,&amp;quot;v&amp;quot;:&amp;quot;left&amp;quot;},{&amp;quot;s&amp;quot;:26,&amp;quot;n&amp;quot;:&amp;quot;t&amp;quot;,&amp;quot;v&amp;quot;:&amp;quot;ul&amp;quot;},{&amp;quot;s&amp;quot;:26,&amp;quot;n&amp;quot;:&amp;quot;l&amp;quot;,&amp;quot;v&amp;quot;:&amp;quot;auto&amp;quot;},{&amp;quot;s&amp;quot;:26,&amp;quot;n&amp;quot;:&amp;quot;il&amp;quot;,&amp;quot;v&amp;quot;:22.22222222222222},{&amp;quot;s&amp;quot;:26,&amp;quot;n&amp;quot;:&amp;quot;fl&amp;quot;,&amp;quot;v&amp;quot;:22.22222222222222},{&amp;quot;s&amp;quot;:26,&amp;quot;n&amp;quot;:&amp;quot;a&amp;quot;,&amp;quot;v&amp;quot;:&amp;quot;left&amp;quot;},{&amp;quot;s&amp;quot;:32,&amp;quot;n&amp;quot;:&amp;quot;t&amp;quot;,&amp;quot;v&amp;quot;:&amp;quot;ul&amp;quot;},{&amp;quot;s&amp;quot;:32,&amp;quot;n&amp;quot;:&amp;quot;l&amp;quot;,&amp;quot;v&amp;quot;:&amp;quot;auto&amp;quot;},{&amp;quot;s&amp;quot;:32,&amp;quot;n&amp;quot;:&amp;quot;il&amp;quot;,&amp;quot;v&amp;quot;:22.22222222222222},{&amp;quot;s&amp;quot;:32,&amp;quot;n&amp;quot;:&amp;quot;fl&amp;quot;,&amp;quot;v&amp;quot;:22.22222222222222},{&amp;quot;s&amp;quot;:32,&amp;quot;n&amp;quot;:&amp;quot;a&amp;quot;,&amp;quot;v&amp;quot;:&amp;quot;left&amp;quot;}]}&quot; data-lucid-type=&quot;application/vnd.lucid.text&quot;&gt;&lt;span style=&quot;color: rgb(0, 0, 0);&quot;&gt;email&lt;/span&gt;&lt;/span&gt;&lt;/li&gt;&lt;li style=&quot;text-align: left;&quot;&gt;&lt;span data-lucid-content=&quot;{&amp;quot;t&amp;quot;:&amp;quot;User Profile\n\nuser&#39;s name\nemail\nuser profile picture&amp;quot;,&amp;quot;m&amp;quot;:[{&amp;quot;s&amp;quot;:0,&amp;quot;n&amp;quot;:&amp;quot;s&amp;quot;,&amp;quot;v&amp;quot;:22.22222222222222,&amp;quot;e&amp;quot;:52},{&amp;quot;s&amp;quot;:0,&amp;quot;n&amp;quot;:&amp;quot;fsp&amp;quot;,&amp;quot;v&amp;quot;:&amp;quot;ss_presetShapeStyle1_textStyle&amp;quot;,&amp;quot;e&amp;quot;:52},{&amp;quot;s&amp;quot;:0,&amp;quot;n&amp;quot;:&amp;quot;fsp2&amp;quot;,&amp;quot;v&amp;quot;:&amp;quot;ss_presetShapeStyle1_textStyle&amp;quot;,&amp;quot;e&amp;quot;:52},{&amp;quot;s&amp;quot;:14,&amp;quot;n&amp;quot;:&amp;quot;t&amp;quot;,&amp;quot;v&amp;quot;:&amp;quot;ul&amp;quot;},{&amp;quot;s&amp;quot;:14,&amp;quot;n&amp;quot;:&amp;quot;l&amp;quot;,&amp;quot;v&amp;quot;:&amp;quot;auto&amp;quot;},{&amp;quot;s&amp;quot;:14,&amp;quot;n&amp;quot;:&amp;quot;il&amp;quot;,&amp;quot;v&amp;quot;:22.22222222222222},{&amp;quot;s&amp;quot;:14,&amp;quot;n&amp;quot;:&amp;quot;fl&amp;quot;,&amp;quot;v&amp;quot;:22.22222222222222},{&amp;quot;s&amp;quot;:14,&amp;quot;n&amp;quot;:&amp;quot;a&amp;quot;,&amp;quot;v&amp;quot;:&amp;quot;left&amp;quot;},{&amp;quot;s&amp;quot;:26,&amp;quot;n&amp;quot;:&amp;quot;t&amp;quot;,&amp;quot;v&amp;quot;:&amp;quot;ul&amp;quot;},{&amp;quot;s&amp;quot;:26,&amp;quot;n&amp;quot;:&amp;quot;l&amp;quot;,&amp;quot;v&amp;quot;:&amp;quot;auto&amp;quot;},{&amp;quot;s&amp;quot;:26,&amp;quot;n&amp;quot;:&amp;quot;il&amp;quot;,&amp;quot;v&amp;quot;:22.22222222222222},{&amp;quot;s&amp;quot;:26,&amp;quot;n&amp;quot;:&amp;quot;fl&amp;quot;,&amp;quot;v&amp;quot;:22.22222222222222},{&amp;quot;s&amp;quot;:26,&amp;quot;n&amp;quot;:&amp;quot;a&amp;quot;,&amp;quot;v&amp;quot;:&amp;quot;left&amp;quot;},{&amp;quot;s&amp;quot;:32,&amp;quot;n&amp;quot;:&amp;quot;t&amp;quot;,&amp;quot;v&amp;quot;:&amp;quot;ul&amp;quot;},{&amp;quot;s&amp;quot;:32,&amp;quot;n&amp;quot;:&amp;quot;l&amp;quot;,&amp;quot;v&amp;quot;:&amp;quot;auto&amp;quot;},{&amp;quot;s&amp;quot;:32,&amp;quot;n&amp;quot;:&amp;quot;il&amp;quot;,&amp;quot;v&amp;quot;:22.22222222222222},{&amp;quot;s&amp;quot;:32,&amp;quot;n&amp;quot;:&amp;quot;fl&amp;quot;,&amp;quot;v&amp;quot;:22.22222222222222},{&amp;quot;s&amp;quot;:32,&amp;quot;n&amp;quot;:&amp;quot;a&amp;quot;,&amp;quot;v&amp;quot;:&amp;quot;left&amp;quot;}]}&quot; data-lucid-type=&quot;application/vnd.lucid.text&quot;&gt;&lt;span style=&quot;color: rgb(0, 0, 0);&quot;&gt;user profile picture&lt;/span&gt;&lt;/span&gt;&lt;/li&gt;&lt;/ul&gt;&lt;/span&gt;&lt;/span&gt;" style="rounded=1;whiteSpace=wrap;html=1;absoluteArcSize=1;arcSize=14;strokeWidth=2;fontSize=23;fontStyle=1" vertex="1" parent="1">
          <mxGeometry x="930" y="690" width="337.46" height="270" as="geometry" />
        </mxCell>
        <mxCell id="8UgVAGLM6Ib2Gt2lrsU2-186" style="edgeStyle=orthogonalEdgeStyle;rounded=0;orthogonalLoop=1;jettySize=auto;html=1;entryX=0;entryY=0.5;entryDx=0;entryDy=0;" edge="1" parent="1" source="8UgVAGLM6Ib2Gt2lrsU2-117">
          <mxGeometry relative="1" as="geometry">
            <mxPoint x="1165" y="3355" as="targetPoint" />
          </mxGeometry>
        </mxCell>
        <mxCell id="8UgVAGLM6Ib2Gt2lrsU2-117" value="&lt;span&gt;&lt;font style=&quot;font-size: 43px;&quot;&gt;QUIZ UI&lt;/font&gt;&lt;/span&gt;&lt;div&gt;&lt;span&gt;&lt;font style=&quot;font-size: 43px;&quot;&gt;&lt;br&gt;&lt;/font&gt;&lt;/span&gt;&lt;/div&gt;&lt;div&gt;&lt;span&gt;&lt;font style=&quot;font-size: 43px;&quot;&gt;&lt;br&gt;&lt;/font&gt;&lt;/span&gt;&lt;/div&gt;&lt;div&gt;&lt;span&gt;&lt;font style=&quot;font-size: 43px;&quot;&gt;&lt;br&gt;&lt;/font&gt;&lt;/span&gt;&lt;/div&gt;&lt;div&gt;&lt;span&gt;&lt;font style=&quot;font-size: 43px;&quot;&gt;&lt;br&gt;&lt;/font&gt;&lt;/span&gt;&lt;/div&gt;&lt;div&gt;&lt;span&gt;&lt;font style=&quot;font-size: 43px;&quot;&gt;&lt;br&gt;&lt;/font&gt;&lt;/span&gt;&lt;/div&gt;&lt;div&gt;&lt;span&gt;&lt;font style=&quot;font-size: 43px;&quot;&gt;&lt;br&gt;&lt;/font&gt;&lt;/span&gt;&lt;/div&gt;&lt;div&gt;&lt;span&gt;&lt;font style=&quot;font-size: 43px;&quot;&gt;&lt;br&gt;&lt;/font&gt;&lt;/span&gt;&lt;/div&gt;&lt;div&gt;&lt;span&gt;&lt;font style=&quot;font-size: 43px;&quot;&gt;&lt;br&gt;&lt;/font&gt;&lt;/span&gt;&lt;/div&gt;&lt;div&gt;&lt;span&gt;&lt;font style=&quot;font-size: 43px;&quot;&gt;&lt;br&gt;&lt;/font&gt;&lt;/span&gt;&lt;/div&gt;&lt;div&gt;&lt;span&gt;&lt;font style=&quot;font-size: 43px;&quot;&gt;&lt;br&gt;&lt;/font&gt;&lt;/span&gt;&lt;/div&gt;&lt;div&gt;&lt;span&gt;&lt;font style=&quot;font-size: 43px;&quot;&gt;&lt;br&gt;&lt;/font&gt;&lt;/span&gt;&lt;/div&gt;&lt;div&gt;&lt;span&gt;&lt;font style=&quot;font-size: 43px;&quot;&gt;&lt;br&gt;&lt;/font&gt;&lt;/span&gt;&lt;/div&gt;&lt;div&gt;&lt;span&gt;&lt;font style=&quot;font-size: 43px;&quot;&gt;&lt;br&gt;&lt;/font&gt;&lt;/span&gt;&lt;/div&gt;&lt;div&gt;&lt;span&gt;&lt;font style=&quot;font-size: 43px;&quot;&gt;&lt;br&gt;&lt;/font&gt;&lt;/span&gt;&lt;/div&gt;&lt;div&gt;&lt;span&gt;&lt;font style=&quot;font-size: 43px;&quot;&gt;&lt;br&gt;&lt;/font&gt;&lt;/span&gt;&lt;/div&gt;&lt;div&gt;&lt;span&gt;&lt;font style=&quot;font-size: 43px;&quot;&gt;&lt;br&gt;&lt;/font&gt;&lt;/span&gt;&lt;/div&gt;&lt;div&gt;&lt;span&gt;&lt;font style=&quot;font-size: 43px;&quot;&gt;&lt;br&gt;&lt;/font&gt;&lt;/span&gt;&lt;/div&gt;&lt;div&gt;&lt;br&gt;&lt;/div&gt;" style="rounded=1;whiteSpace=wrap;html=1;absoluteArcSize=1;arcSize=14;strokeWidth=2;fontSize=20;fontStyle=1" vertex="1" parent="1">
          <mxGeometry x="-880" y="2810" width="1210" height="970" as="geometry" />
        </mxCell>
        <mxCell id="8UgVAGLM6Ib2Gt2lrsU2-163" value="&lt;span&gt;&lt;font style=&quot;font-size: 43px;&quot;&gt;EDITOR UI&lt;/font&gt;&lt;/span&gt;&lt;div&gt;&lt;span&gt;&lt;font style=&quot;font-size: 43px;&quot;&gt;&lt;br&gt;&lt;/font&gt;&lt;/span&gt;&lt;/div&gt;&lt;div&gt;&lt;span&gt;&lt;font style=&quot;font-size: 43px;&quot;&gt;&lt;br&gt;&lt;/font&gt;&lt;/span&gt;&lt;/div&gt;&lt;div&gt;&lt;span&gt;&lt;font style=&quot;font-size: 43px;&quot;&gt;&lt;br&gt;&lt;/font&gt;&lt;/span&gt;&lt;/div&gt;&lt;div&gt;&lt;span&gt;&lt;font style=&quot;font-size: 43px;&quot;&gt;&lt;br&gt;&lt;/font&gt;&lt;/span&gt;&lt;/div&gt;&lt;div&gt;&lt;span&gt;&lt;font style=&quot;font-size: 43px;&quot;&gt;&lt;br&gt;&lt;/font&gt;&lt;/span&gt;&lt;/div&gt;&lt;div&gt;&lt;span&gt;&lt;font style=&quot;font-size: 43px;&quot;&gt;&lt;br&gt;&lt;/font&gt;&lt;/span&gt;&lt;/div&gt;&lt;div&gt;&lt;span&gt;&lt;font style=&quot;font-size: 43px;&quot;&gt;&lt;br&gt;&lt;/font&gt;&lt;/span&gt;&lt;/div&gt;&lt;div&gt;&lt;span&gt;&lt;font style=&quot;font-size: 43px;&quot;&gt;&lt;br&gt;&lt;/font&gt;&lt;/span&gt;&lt;/div&gt;&lt;div&gt;&lt;span&gt;&lt;font style=&quot;font-size: 43px;&quot;&gt;&lt;br&gt;&lt;/font&gt;&lt;/span&gt;&lt;/div&gt;&lt;div&gt;&lt;span&gt;&lt;font style=&quot;font-size: 43px;&quot;&gt;&lt;br&gt;&lt;/font&gt;&lt;/span&gt;&lt;/div&gt;&lt;div&gt;&lt;span&gt;&lt;font style=&quot;font-size: 43px;&quot;&gt;&lt;br&gt;&lt;/font&gt;&lt;/span&gt;&lt;/div&gt;&lt;div&gt;&lt;span&gt;&lt;font style=&quot;font-size: 43px;&quot;&gt;&lt;br&gt;&lt;/font&gt;&lt;/span&gt;&lt;/div&gt;&lt;div&gt;&lt;span&gt;&lt;font style=&quot;font-size: 43px;&quot;&gt;&lt;br&gt;&lt;/font&gt;&lt;/span&gt;&lt;/div&gt;&lt;div&gt;&lt;span&gt;&lt;font style=&quot;font-size: 43px;&quot;&gt;&lt;br&gt;&lt;/font&gt;&lt;/span&gt;&lt;/div&gt;&lt;div&gt;&lt;span&gt;&lt;font style=&quot;font-size: 43px;&quot;&gt;&lt;br&gt;&lt;/font&gt;&lt;/span&gt;&lt;/div&gt;&lt;div&gt;&lt;span&gt;&lt;font style=&quot;font-size: 43px;&quot;&gt;&lt;br&gt;&lt;/font&gt;&lt;/span&gt;&lt;/div&gt;&lt;div&gt;&lt;span&gt;&lt;font style=&quot;font-size: 43px;&quot;&gt;&lt;br&gt;&lt;/font&gt;&lt;/span&gt;&lt;/div&gt;&lt;div&gt;&lt;br&gt;&lt;/div&gt;" style="rounded=1;whiteSpace=wrap;html=1;absoluteArcSize=1;arcSize=14;strokeWidth=2;fontSize=20;fontStyle=1" vertex="1" parent="1">
          <mxGeometry x="1675" y="1600" width="1210" height="970" as="geometry" />
        </mxCell>
      </root>
    </mxGraphModel>
  </diagram>
</mxfile>
